<svg id="adobe-xd-1" xmlns="http://www.w3.org/2000/svg" width="137.5" height="134.063" viewBox="0 0 137.5 134.063">
  <path id="Path_2045" data-name="Path 2045" d="M113.152,134.063h-88.8A24.327,24.327,0,0,1,0,109.714V24.349A24.327,24.327,0,0,1,24.349,0h88.8A24.327,24.327,0,0,1,137.5,24.349v85.366A24.327,24.327,0,0,1,113.152,134.063Z" fill="#ff26be"/>
  <path id="Path_2046" data-name="Path 2046" d="M209.442,226.8H125a20.832,20.832,0,0,1-20.8-20.8V125A20.832,20.832,0,0,1,125,104.2h84.392a20.793,20.793,0,0,1,20.8,20.8V205.95a20.762,20.762,0,0,1-20.741,20.85Z" transform="translate(-98.469 -98.469)" fill="#2e001f"/>
  <path id="Path_2047" data-name="Path 2047" d="M495.389,622.929l16.043,30.822c.286.456.116.918-.346.918h-9.971a1.123,1.123,0,0,1-1.2-.742c-3.669-7.562-7.392-15.125-11.231-23.259h-.115c-3.437,7.678-7.221,15.757-10.885,23.32a1.105,1.105,0,0,1-1.034.633H467.2c-.572,0-.633-.457-.341-.8l15.7-29.909-15.18-30.25a.463.463,0,0,1,.341-.8h9.856c.572,0,.8.115,1.029.632,3.608,7.563,7.277,15.356,10.714,22.974h.115c3.322-7.562,6.991-15.411,10.543-22.918.286-.457.457-.743,1.034-.743h9.224c.456,0,.632.347.346.8Zm18.854,9.339c0-13.349,8.882-23.776,22.974-23.776a25.26,25.26,0,0,1,2.981.115v-15.18a.571.571,0,0,1,.572-.572h9.053c.457,0,.572.17.572.456v52.6a40.916,40.916,0,0,0,.286,5.615c0,.347-.115.457-.457.633a34.107,34.107,0,0,1-14.668,3.322c-12.436.049-21.318-7.623-21.312-23.21ZM540.192,617.6a8.611,8.611,0,0,0-3.322-.572c-7.221,0-12.259,5.555-12.259,14.784,0,10.544,5.159,14.784,11.633,14.784a10.742,10.742,0,0,0,3.954-.632V617.6Z" transform="translate(-441.022 -560.196)" fill="#ffd9f2"/>
</svg>
