<svg xmlns="http://www.w3.org/2000/svg" width="275" height="74.37" viewBox="0 0 275 74.37">
  <g id="github-2" transform="translate(0.122 -175.062)">
    <path id="Path_2048" data-name="Path 2048" d="M52.844,206.893H29.735a1.081,1.081,0,0,0-1.08,1.08v11.3a1.082,1.082,0,0,0,1.08,1.082H38.75V234.39s-2.024.691-7.62.691c-6.6,0-15.826-2.413-15.826-22.694s9.6-22.955,18.621-22.955a36.57,36.57,0,0,1,13.307,2.036,1.087,1.087,0,0,0,1.294-1.06L51.1,179.492a1.008,1.008,0,0,0-.413-.844c-.869-.62-6.169-3.586-19.561-3.586-15.427,0-31.252,6.564-31.252,38.115S18,249.432,33.263,249.432c12.641,0,20.31-5.4,20.31-5.4a.929.929,0,0,0,.35-.819V207.972a1.08,1.08,0,0,0-1.079-1.079m119.094-28.051a1.077,1.077,0,0,0-1.073-1.086H157.853a1.082,1.082,0,0,0-1.078,1.086l0,25.146H136.5V178.842a1.078,1.078,0,0,0-1.074-1.086H122.412a1.081,1.081,0,0,0-1.075,1.086V246.93a1.083,1.083,0,0,0,1.075,1.089h13.011a1.081,1.081,0,0,0,1.074-1.089V217.806h20.282l-.036,29.124a1.084,1.084,0,0,0,1.078,1.089h13.043a1.081,1.081,0,0,0,1.074-1.089V178.842M77.4,187.778a8.39,8.39,0,1,0-8.391,8.476,8.427,8.427,0,0,0,8.391-8.476m-.931,44.79V201.138a1.082,1.082,0,0,0-1.077-1.085H62.42a1.241,1.241,0,0,0-1.127,1.211v45.028c0,1.324.825,1.717,1.892,1.717H74.871c1.282,0,1.6-.63,1.6-1.737v-13.7m144.921-32.412H208.476a1.083,1.083,0,0,0-1.074,1.089v33.385a14.587,14.587,0,0,1-7.936,2.4c-4.655,0-5.891-2.112-5.891-6.671V201.244a1.082,1.082,0,0,0-1.074-1.089H179.4a1.085,1.085,0,0,0-1.076,1.089v31.319c0,13.54,7.547,16.853,17.929,16.853a30.259,30.259,0,0,0,15.383-4.7,27.322,27.322,0,0,0,.475,2.773,1.138,1.138,0,0,0,.95.589l8.337-.037a1.085,1.085,0,0,0,1.076-1.087l0-45.705a1.084,1.084,0,0,0-1.078-1.089m30.2,36.833a15.478,15.478,0,0,1-7.516-2.169V213.258a17.208,17.208,0,0,1,6.673-2.166c4.65-.416,9.13.988,9.13,12.08C259.873,234.869,257.851,237.177,251.585,236.989Zm5.093-38.362a24.278,24.278,0,0,0-12.322,3.272V178.843a1.079,1.079,0,0,0-1.074-1.086H230.234a1.081,1.081,0,0,0-1.075,1.086V246.93a1.084,1.084,0,0,0,1.077,1.089h9.054a1.078,1.078,0,0,0,.944-.578,21.2,21.2,0,0,0,.55-3.139s5.336,5.056,15.436,5.056c11.858,0,18.658-6.015,18.658-27s-10.861-23.73-18.2-23.73m-142.815,1.421H104.1l-.015-12.895c0-.488-.251-.732-.815-.732h-13.3c-.517,0-.795.228-.795.724v13.326s-6.665,1.609-7.116,1.739a1.08,1.08,0,0,0-.779,1.038v8.374a1.08,1.08,0,0,0,1.076,1.087h6.819v20.144c0,14.963,10.5,16.433,17.577,16.433a29.634,29.634,0,0,0,7.746-1.276,1.006,1.006,0,0,0,.611-.976l.011-9.211a1.1,1.1,0,0,0-1.079-1.086c-.569,0-2.024.231-3.522.231-4.794,0-6.419-2.229-6.419-5.115V212.707h9.761a1.08,1.08,0,0,0,1.077-1.087V201.131a1.079,1.079,0,0,0-1.077-1.084" fill="#121110"/>
  </g>
</svg>
