<svg xmlns="http://www.w3.org/2000/svg" width="571" height="55" viewBox="0 0 571 55">
  <g id="Group_17" data-name="Group 17" transform="translate(-398 -286)">
    <text id="HACK_CHANGE" data-name="HACK&amp;CHANGE" transform="translate(660 330)" fill="#fff" font-size="42" font-family="Roboto-Black, Roboto" font-weight="800"><tspan x="0" y="0">HACK&amp;CHANGE</tspan></text>
    <g id="logo" transform="translate(398 296)">
      <path id="Path_1" data-name="Path 1" d="M0,18a25.952,25.952,0,0,1,.3-4,8.211,8.211,0,0,1,1.3-3.5A6.948,6.948,0,0,1,4.2,8,9.233,9.233,0,0,1,8.6,7H10a9.971,9.971,0,0,1,1.6.2c.5.1,1.1.2,1.6.3s1,.3,1.4.4l.4.4c.1.1.1.4.1.6l-.3,1.3a.52.52,0,0,1-.2.4c-.1.1-.3.1-.6.1-.8-.1-1.6-.2-2.5-.3a23.484,23.484,0,0,0-2.6-.1,4.764,4.764,0,0,0-2.6.6,3.53,3.53,0,0,0-1.5,1.7A4.9,4.9,0,0,0,4,15a26.607,26.607,0,0,0-.2,3A26.417,26.417,0,0,0,4,20.9a8.433,8.433,0,0,0,.7,2.4,4.629,4.629,0,0,0,1.5,1.6,4.871,4.871,0,0,0,2.5.6,21.75,21.75,0,0,0,2.6-.1c.8-.1,1.7-.2,2.5-.3.3,0,.5,0,.6.1a1.38,1.38,0,0,1,.3.4l.3,1.2a.825.825,0,0,1-.5,1,4.672,4.672,0,0,1-1.4.4c-.5.1-1.1.2-1.6.3s-1.1.1-1.6.2H8.5a9.572,9.572,0,0,1-4.4-.9,6.708,6.708,0,0,1-2.6-2.4A9.27,9.27,0,0,1,.2,22C.1,20.7,0,19.4,0,18M30.4,28.5H28.1a.53.53,0,0,1-.6-.6V18.7a4.813,4.813,0,0,0-.4-2.2,2.026,2.026,0,0,0-1.9-.8,5.16,5.16,0,0,0-1.1.2c-.4.1-.8.3-1.2.4a6.117,6.117,0,0,0-1.2.5,6.314,6.314,0,0,1-.9.4V28c0,.2,0,.3-.1.4a.588.588,0,0,1-.5.2H17.9a.53.53,0,0,1-.6-.6V6.5a.53.53,0,0,1,.6-.6h2.3a.53.53,0,0,1,.6.6v7.7a8.794,8.794,0,0,1,1-.6c.4-.2.8-.4,1.3-.6a8.331,8.331,0,0,1,1.5-.4,7.719,7.719,0,0,1,1.5-.2,5.991,5.991,0,0,1,2.6.5,4.708,4.708,0,0,1,1.5,1.3,6.033,6.033,0,0,1,.6,1.9,10.978,10.978,0,0,1,.2,2.5v9.3a.53.53,0,0,1-.6.6M44,26.6a11.74,11.74,0,0,1-2.7,1.5,8.662,8.662,0,0,1-3.2.6,5.842,5.842,0,0,1-2.1-.3,2.54,2.54,0,0,1-1.3-.9,3.694,3.694,0,0,1-.7-1.4,11.076,11.076,0,0,1-.2-1.9,5.147,5.147,0,0,1,1.5-4.1,7.1,7.1,0,0,1,4.5-1.3h4.1V18a4.121,4.121,0,0,0-.1-1.2,2.177,2.177,0,0,0-.5-.8,3.128,3.128,0,0,0-1-.5,7.589,7.589,0,0,0-1.6-.1h-.9a4.869,4.869,0,0,0-1.2.1c-.4,0-.8.1-1.2.1s-.8.1-1.1.1h-.7a.7.7,0,0,1-.2-.4L35,14.1a.749.749,0,0,1,.1-.5,1.4,1.4,0,0,1,.7-.4,10.378,10.378,0,0,1,1.2-.3,6.753,6.753,0,0,1,1.4-.2,7.569,7.569,0,0,1,1.5-.1h1.3a9.867,9.867,0,0,1,3.3.4,5.162,5.162,0,0,1,1.9,1.2,3.7,3.7,0,0,1,.8,1.8,16.592,16.592,0,0,1,.2,2.4v7a.52.52,0,0,0,.2.4c.1.1.2.2.3.2s.4.1.6.1a4.331,4.331,0,0,1,.5.1c.1.1.1.2.1.4v1.3c0,.4-.3.6-.8.7-.3,0-.5.1-.8.1h-.7a3.207,3.207,0,0,1-1.8-.4,2.883,2.883,0,0,1-1-1.7Zm-.2-5.3H39.9a2.707,2.707,0,0,0-1.9.6,2.541,2.541,0,0,0-.7,2.1,2.076,2.076,0,0,0,.4,1.5,2.2,2.2,0,0,0,1.6.4,4.484,4.484,0,0,0,1.1-.1,5.638,5.638,0,0,0,1.2-.4,6.117,6.117,0,0,0,1.2-.5,9.25,9.25,0,0,1,1-.5V21.3Zm20.7,7a.588.588,0,0,1-.5.2H61.7a.53.53,0,0,1-.6-.6v-9a5.214,5.214,0,0,0-.5-2.3,1.814,1.814,0,0,0-1.8-.9,5.16,5.16,0,0,0-1.1.2,5.638,5.638,0,0,0-1.2.4c-.4.2-.8.3-1.2.5s-.7.3-.9.4V27.9a.53.53,0,0,1-.6.6H51.5a.53.53,0,0,1-.6-.6V13.4a.53.53,0,0,1,.6-.6h2.3a.53.53,0,0,1,.6.6v1c.3-.2.7-.4,1.1-.7.4-.2.9-.4,1.3-.6.5-.2,1-.3,1.5-.5a7.719,7.719,0,0,1,1.5-.2,6.326,6.326,0,0,1,2.6.5,3.531,3.531,0,0,1,1.4,1.3,6.033,6.033,0,0,1,.6,1.9,16.95,16.95,0,0,1,.1,2.3v9.3q.15.45,0,.6m9.9-15.8c1,0,2.1.1,3.2.2,1.1.2,2.1.4,2.8.6a.877.877,0,0,1,.7.6,2.2,2.2,0,0,1,.1.8V28.2a21.116,21.116,0,0,1-.2,2.6,3.373,3.373,0,0,1-.9,2,4.116,4.116,0,0,1-2,1.3,11.519,11.519,0,0,1-3.6.5c-.8,0-1.7-.1-2.7-.2a6.991,6.991,0,0,1-2.4-.6,1.538,1.538,0,0,1-.6-.4.454.454,0,0,1,0-.5l.3-1.2c0-.3.1-.4.3-.4h.7a16.413,16.413,0,0,0,2.3.2,16.233,16.233,0,0,0,2.1.1,7.931,7.931,0,0,0,1.7-.2,2.344,2.344,0,0,0,1-.5,1.346,1.346,0,0,0,.5-.9,5.283,5.283,0,0,0,.1-1.3V27.6a10.408,10.408,0,0,1-2.2.6,11.135,11.135,0,0,1-1.7.2,7.306,7.306,0,0,1-3.2-.6,5.264,5.264,0,0,1-2-1.6,6.257,6.257,0,0,1-1-2.5,16.551,16.551,0,0,1-.3-3.2,17.19,17.19,0,0,1,.3-3.4,6.819,6.819,0,0,1,1.1-2.6A4.517,4.517,0,0,1,71,12.9a15.084,15.084,0,0,1,3.4-.4M71,20.4a16.858,16.858,0,0,0,.2,2.5,5.034,5.034,0,0,0,.5,1.6,1.589,1.589,0,0,0,1,.8,3.194,3.194,0,0,0,1.4.3,9.151,9.151,0,0,0,1.6-.1,17.659,17.659,0,0,0,2-.4V16a7.772,7.772,0,0,0-1.6-.2,9.151,9.151,0,0,0-1.6-.1,6.753,6.753,0,0,0-1.4.2,1.9,1.9,0,0,0-1.1.7,3.475,3.475,0,0,0-.8,1.5,11.321,11.321,0,0,0-.2,2.3m16.5,1.2a5.618,5.618,0,0,0,.3,2,3.991,3.991,0,0,0,.7,1.3,3.458,3.458,0,0,0,1.2.7,7.931,7.931,0,0,0,1.7.2,14.084,14.084,0,0,0,2-.1,18.32,18.32,0,0,1,2.1-.2h.6a.588.588,0,0,1,.2.5l.2,1.1v.6a1.082,1.082,0,0,1-.5.4c-.3.1-.7.2-1.1.3a5.853,5.853,0,0,1-1.3.2c-.5.1-.9.1-1.4.2a6.151,6.151,0,0,1-1.3.1,7.879,7.879,0,0,1-3.7-.7,4.626,4.626,0,0,1-2.1-1.8,6.73,6.73,0,0,1-1-2.6,15.138,15.138,0,0,1-.2-3c0-.8.1-1.6.2-2.6a6.18,6.18,0,0,1,.9-2.7,6.629,6.629,0,0,1,2-2.1,6.566,6.566,0,0,1,3.7-.8,8.8,8.8,0,0,1,3.5.6,5.844,5.844,0,0,1,2.1,1.6,5.973,5.973,0,0,1,1,2.3,11.529,11.529,0,0,1,.3,2.6,2.9,2.9,0,0,1-.3,1.4c-.2.4-.6.5-1.3.5H87.5Zm3.2-6.2a3.339,3.339,0,0,0-1.5.3,2.178,2.178,0,0,0-.9.7,3.337,3.337,0,0,0-.5,1.2,7.772,7.772,0,0,0-.2,1.6h6.3a6.15,6.15,0,0,0-.1-1.4,2.195,2.195,0,0,0-.5-1.2,2.229,2.229,0,0,0-1-.9,3.506,3.506,0,0,0-1.6-.3M104,24.5q0,.75.3.9a2.872,2.872,0,0,0,1.2.2,4.331,4.331,0,0,1,.5.1c.1,0,.1.1.2.3l.1,1.6a.548.548,0,0,1-.4.6,3.545,3.545,0,0,1-1.1.3,3.751,3.751,0,0,1-1,.1,3.236,3.236,0,0,1-2.5-.8,3.444,3.444,0,0,1-.7-2.4V6.5a.53.53,0,0,1,.6-.6h2.3a.53.53,0,0,1,.6.6v18Zm8.2,0q0,.75.3.9a2.872,2.872,0,0,0,1.2.2,4.331,4.331,0,0,1,.5.1c.1,0,.1.1.2.3l.1,1.6a.548.548,0,0,1-.4.6,3.545,3.545,0,0,1-1.1.3,3.751,3.751,0,0,1-1,.1,3.236,3.236,0,0,1-2.5-.8,3.444,3.444,0,0,1-.7-2.4V6.5a.53.53,0,0,1,.6-.6h2.3a.53.53,0,0,1,.6.6v18Zm7.6-2.9a5.618,5.618,0,0,0,.3,2,3.991,3.991,0,0,0,.7,1.3,3.458,3.458,0,0,0,1.2.7,7.931,7.931,0,0,0,1.7.2,14.084,14.084,0,0,0,2-.1,18.32,18.32,0,0,1,2.1-.2h.6a.588.588,0,0,1,.2.5l.2,1.1v.6a1.082,1.082,0,0,1-.5.4c-.3.1-.7.2-1.1.3a5.853,5.853,0,0,1-1.3.2c-.5.1-.9.1-1.4.2a6.151,6.151,0,0,1-1.3.1,7.879,7.879,0,0,1-3.7-.7,4.626,4.626,0,0,1-2.1-1.8,6.73,6.73,0,0,1-1-2.6,15.138,15.138,0,0,1-.2-3c0-.8.1-1.6.2-2.6a6.18,6.18,0,0,1,.9-2.7,6.629,6.629,0,0,1,2-2.1,6.566,6.566,0,0,1,3.7-.8,8.8,8.8,0,0,1,3.5.6,5.844,5.844,0,0,1,2.1,1.6,5.973,5.973,0,0,1,1,2.3,11.529,11.529,0,0,1,.3,2.6,2.9,2.9,0,0,1-.3,1.4c-.2.4-.6.5-1.3.5h-8.5Zm3.2-6.2a3.339,3.339,0,0,0-1.5.3,2.178,2.178,0,0,0-.9.7,3.337,3.337,0,0,0-.5,1.2,7.772,7.772,0,0,0-.2,1.6h6.3a6.15,6.15,0,0,0-.1-1.4,2.195,2.195,0,0,0-.5-1.2,2.229,2.229,0,0,0-1-.9,3.808,3.808,0,0,0-1.6-.3m22.8,12.9a.588.588,0,0,1-.5.2H143a.53.53,0,0,1-.6-.6v-9a5.214,5.214,0,0,0-.5-2.3,1.814,1.814,0,0,0-1.8-.9,5.16,5.16,0,0,0-1.1.2,5.638,5.638,0,0,0-1.2.4c-.4.2-.8.3-1.2.5s-.7.3-.9.4V27.9a.53.53,0,0,1-.6.6h-2.3a.53.53,0,0,1-.6-.6V13.4a.53.53,0,0,1,.6-.6h2.3a.53.53,0,0,1,.6.6v1c.3-.2.7-.4,1.1-.7.4-.2.9-.4,1.3-.6.5-.2,1-.3,1.5-.5a7.719,7.719,0,0,1,1.5-.2,6.326,6.326,0,0,1,2.6.5,3.531,3.531,0,0,1,1.4,1.3,6.033,6.033,0,0,1,.6,1.9,16.949,16.949,0,0,1,.1,2.3v9.3a.438.438,0,0,1,0,.6m9.9-15.8c1,0,2.1.1,3.2.2,1.1.2,2.1.4,2.8.6a.877.877,0,0,1,.7.6,2.2,2.2,0,0,1,.1.8V28.2a21.117,21.117,0,0,1-.2,2.6,3.373,3.373,0,0,1-.9,2,4.116,4.116,0,0,1-2,1.3,11.519,11.519,0,0,1-3.6.5c-.8,0-1.7-.1-2.7-.2a6.991,6.991,0,0,1-2.4-.6,1.538,1.538,0,0,1-.6-.4.454.454,0,0,1,0-.5l.3-1.2c0-.3.1-.4.3-.4h.7a16.413,16.413,0,0,0,2.3.2,16.233,16.233,0,0,0,2.1.1,7.931,7.931,0,0,0,1.7-.2,2.344,2.344,0,0,0,1-.5,1.346,1.346,0,0,0,.5-.9,5.283,5.283,0,0,0,.1-1.3V27.6a10.408,10.408,0,0,1-2.2.6,12.765,12.765,0,0,1-1.7.2,7.306,7.306,0,0,1-3.2-.6,5.264,5.264,0,0,1-2-1.6,6.257,6.257,0,0,1-1-2.5,16.551,16.551,0,0,1-.3-3.2,17.191,17.191,0,0,1,.3-3.4,6.819,6.819,0,0,1,1.1-2.6,4.517,4.517,0,0,1,2.2-1.6,15.862,15.862,0,0,1,3.4-.4m-3.3,7.9a16.859,16.859,0,0,0,.2,2.5,5.034,5.034,0,0,0,.5,1.6,1.589,1.589,0,0,0,1,.8,3.194,3.194,0,0,0,1.4.3,9.151,9.151,0,0,0,1.6-.1,17.658,17.658,0,0,0,2-.4V16a7.772,7.772,0,0,0-1.6-.2,9.151,9.151,0,0,0-1.6-.1,6.753,6.753,0,0,0-1.4.2,1.9,1.9,0,0,0-1.1.7,3.475,3.475,0,0,0-.8,1.5,6.871,6.871,0,0,0-.2,2.3m16.5,1.2a5.618,5.618,0,0,0,.3,2,3.991,3.991,0,0,0,.7,1.3,3.458,3.458,0,0,0,1.2.7,7.931,7.931,0,0,0,1.7.2,14.084,14.084,0,0,0,2-.1,18.32,18.32,0,0,1,2.1-.2h.6a.588.588,0,0,1,.2.5l.2,1.1v.6a1.082,1.082,0,0,1-.5.4c-.3.1-.7.2-1.1.3a5.852,5.852,0,0,1-1.3.2c-.5.1-.9.1-1.4.2a6.151,6.151,0,0,1-1.3.1,7.879,7.879,0,0,1-3.7-.7,4.626,4.626,0,0,1-2.1-1.8,6.73,6.73,0,0,1-1-2.6,15.138,15.138,0,0,1-.2-3c0-.8.1-1.6.2-2.6a6.18,6.18,0,0,1,.9-2.7,6.629,6.629,0,0,1,2-2.1,6.566,6.566,0,0,1,3.7-.8,8.8,8.8,0,0,1,3.5.6,5.844,5.844,0,0,1,2.1,1.6,5.973,5.973,0,0,1,1,2.3,11.529,11.529,0,0,1,.3,2.6,2.9,2.9,0,0,1-.3,1.4c-.2.4-.6.5-1.3.5h-8.5Zm3.2-6.2a3.339,3.339,0,0,0-1.5.3,2.178,2.178,0,0,0-.9.7,3.337,3.337,0,0,0-.5,1.2,7.772,7.772,0,0,0-.2,1.6h6.3a6.149,6.149,0,0,0-.1-1.4,2.2,2.2,0,0,0-.5-1.2,2.229,2.229,0,0,0-1-.9,3.808,3.808,0,0,0-1.6-.3M230.6,0H213.2l17.4,17.3L213.2,34.7h17.4l17.3-17.4Z" fill="#de1222"/>
      <path id="Path_2" data-name="Path 2" d="M221.8,17.3,204.5,0H187.1l17.4,17.3L187.1,34.7h17.4Z" fill="#de1222"/>
    </g>
  </g>
</svg>
