<svg xmlns="http://www.w3.org/2000/svg" width="273.983" height="189.902" viewBox="0 0 273.983 189.902">
  <g id="mysql" transform="translate(18.458 -6.58)">
    <path id="Path_2040" data-name="Path 2040" d="M-18.458,6.58H255.525v189.9H-18.458Z" transform="translate(0)" fill="none"/>
    <path id="Path_2041" data-name="Path 2041" d="M54.026,126.981H46.609q-.393-18.78-2.166-35.32h-.066l-11.293,35.32H27.437L16.211,91.661h-.064q-1.249,15.884-1.575,35.32H7.81q.654-23.635,3.281-44.317h9.193l10.7,32.564h.066L41.816,82.664h8.8q2.89,24.226,3.414,44.317m32.168-32.7q-4.53,24.583-11.95,35.73Q68.466,138.6,61.574,138.6a12.455,12.455,0,0,1-4.529-1.1v-3.952a21.814,21.814,0,0,0,3.085.2,7.455,7.455,0,0,0,5.189-1.774,6.473,6.473,0,0,0,2.361-4.856q0-1.845-1.838-7.551L57.7,94.283h7.287l5.842,18.906q1.969,6.439,1.641,9a123.493,123.493,0,0,0,6.7-27.9h7.025v0Z" transform="translate(11.383 32.97)" fill="#5d87a1"/>
    <path id="Path_2042" data-name="Path 2042" d="M159.823,127.181h-21.07V82.863h7.088v38.862h13.982Zm-26.585,1.071-8.147-4.021a15.14,15.14,0,0,0,2.035-1.979q5.194-6.1,5.19-18.051,0-21.992-17.264-22-8.467,0-13.2,5.583-5.19,6.106-5.187,17.99,0,11.685,4.594,17.13,4.2,4.926,12.675,4.928a20.421,20.421,0,0,0,5.8-.778l10.607,6.175Zm-26.392-9.939q-2.692-4.33-2.692-13.913,0-16.738,10.177-16.744,5.321,0,7.81,4,2.688,4.337,2.693,13.787,0,16.875-10.175,16.876-5.323,0-7.813-4.008M93.578,114.9a11.757,11.757,0,0,1-4.134,9.256q-4.137,3.608-11.09,3.611a22.208,22.208,0,0,1-12.6-4.139l1.9-3.806a21.562,21.562,0,0,0,9.514,2.624,9.994,9.994,0,0,0,6.271-1.766,6.02,6.02,0,0,0,2.414-4.921c0-2.633-1.836-4.883-5.2-6.768-3.106-1.706-9.318-5.272-9.318-5.272-3.367-2.454-5.053-5.088-5.053-9.428a11.01,11.01,0,0,1,3.773-8.7A14.22,14.22,0,0,1,79.8,82.273a20.217,20.217,0,0,1,11.222,3.284l-1.709,3.807a21.7,21.7,0,0,0-8.53-1.836A7.6,7.6,0,0,0,75.54,89.17a5.49,5.49,0,0,0-1.988,4.2c0,2.62,1.875,4.9,5.335,6.821,3.148,1.709,9.514,5.336,9.514,5.336,3.453,2.45,5.177,5.06,5.177,9.365" transform="translate(36.49 32.77)" fill="#f8981d"/>
    <path id="Path_2043" data-name="Path 2043" d="M159.513,90.379c-4.286-.109-7.6.322-10.389,1.5-.8.321-2.083.321-2.194,1.337.434.43.484,1.124.861,1.717a12.442,12.442,0,0,0,2.784,3.262c1.122.86,2.249,1.711,3.43,2.461,2.083,1.289,4.443,2.038,6.473,3.322,1.182.747,2.358,1.713,3.542,2.517.582.429.955,1.124,1.71,1.392v-.163c-.378-.482-.486-1.178-.857-1.714l-1.608-1.551a25.484,25.484,0,0,0-5.567-5.405c-1.714-1.181-5.464-2.786-6.159-4.762l-.109-.109a21.331,21.331,0,0,0,3.7-.866c1.822-.48,3.483-.371,5.352-.851.86-.215,1.713-.484,2.576-.75v-.483c-.969-.965-1.66-2.246-2.679-3.158a71.293,71.293,0,0,0-8.835-6.586c-1.663-1.074-3.8-1.764-5.571-2.677-.638-.323-1.713-.482-2.088-1.018a21.816,21.816,0,0,1-2.2-4.124c-1.548-2.943-3.052-6.208-4.387-9.32a57.916,57.916,0,0,0-2.732-6.1c-5.518-9.1-11.511-14.614-20.722-20.025a25.679,25.679,0,0,0-6.85-2.2l-4.018-.212a21.288,21.288,0,0,1-2.464-1.876c-3.056-1.926-10.923-6.1-13.171-.589-1.448,3.484,2.141,6.91,3.374,8.677a24.613,24.613,0,0,1,2.726,4.016c.377.91.483,1.876.86,2.838a64.138,64.138,0,0,0,2.785,7.177,25.551,25.551,0,0,0,1.979,3.314c.43.593,1.178.856,1.342,1.823-.747,1.066-.806,2.676-1.234,4.015C97.243,71.261,98,78.756,100.726,83.2c.854,1.339,2.892,4.286,5.619,3.156,2.414-.963,1.879-4.015,2.573-6.691.159-.646.054-1.071.376-1.495v.1c.747,1.5,1.5,2.941,2.193,4.443a30.53,30.53,0,0,0,6.963,7.17c1.283.969,2.3,2.626,3.906,3.218v-.161h-.106a6,6,0,0,0-1.228-1.068,26,26,0,0,1-2.785-3.212,68.971,68.971,0,0,1-5.994-9.748c-.863-1.663-1.607-3.48-2.3-5.14-.324-.641-.324-1.607-.861-1.929-.806,1.177-1.979,2.2-2.567,3.638-1.019,2.306-1.125,5.143-1.5,8.093l-.211.1c-1.706-.429-2.3-2.193-2.947-3.691a23.192,23.192,0,0,1-.482-14.3c.373-1.122,1.985-4.657,1.342-5.726-.322-1.025-1.395-1.608-1.982-2.415A21.766,21.766,0,0,1,98.8,54.127c-1.284-3-1.931-6.318-3.314-9.314a28.846,28.846,0,0,0-2.677-4.127,26.528,26.528,0,0,1-2.95-4.175c-.267-.589-.641-1.552-.212-2.193a.853.853,0,0,1,.75-.7c.694-.586,2.676.159,3.371.482a27.129,27.129,0,0,1,5.3,2.676c.75.537,1.554,1.555,2.516,1.823h1.127c1.71.373,3.638.1,5.247.588a34.47,34.47,0,0,1,7.711,3.692A47.511,47.511,0,0,1,132.37,61.2c.641,1.23.913,2.356,1.5,3.639,1.128,2.626,2.523,5.3,3.642,7.873a35.281,35.281,0,0,0,3.8,7.174c.8,1.124,4.02,1.713,5.464,2.3a37.771,37.771,0,0,1,3.694,1.5c1.822,1.122,3.636,2.411,5.349,3.645.853.642,3.533,1.981,3.692,3.053M104.894,43.847a8.342,8.342,0,0,0-2.192.269v.108h.1a17.471,17.471,0,0,0,1.716,2.2c.431.859.806,1.71,1.228,2.567l.1-.106a3.009,3.009,0,0,0,1.131-2.677,12.24,12.24,0,0,1-.646-1.124c-.315-.536-1.01-.8-1.443-1.233" transform="translate(45.698 10.411)" fill="#5d87a1"/>
    <path id="Path_2044" data-name="Path 2044" d="M144.334,115.22h1.109V109.79h-1.664l-1.357,3.705-1.475-3.705h-1.6v5.429h1.048v-4.131h.059L142,115.22h.8l1.539-4.131v4.131Zm-8.937,0h1.174v-4.509h1.537v-.922H133.8v.922h1.6l0,4.509Z" transform="translate(65.977 44.724)" fill="#f8981d"/>
  </g>
</svg>
