<svg xmlns="http://www.w3.org/2000/svg" width="273.207" height="77.15" viewBox="0 0 273.207 77.15">
  <g id="nodejs" transform="translate(-0.857 -0.382)">
    <g id="Group_92" data-name="Group 92" transform="translate(230.299 27.765)">
      <path id="Path_2036" data-name="Path 2036" d="M451.993,51.611a3.789,3.789,0,0,0-1.884.461L432,62.533a3.818,3.818,0,0,0-1.885,3.308V86.724A3.819,3.819,0,0,0,432,90.031l4.73,2.731a7.735,7.735,0,0,0,4.192,1.115c3.4,0,5.346-2.065,5.346-5.653V67.609a.517.517,0,0,0-.538-.5h-2.269a.514.514,0,0,0-.538.5V88.223c0,1.59-1.657,3.19-4.346,1.846l-4.923-2.884a.543.543,0,0,1-.308-.461V65.84a.61.61,0,0,1,.308-.5l18.075-10.421a.533.533,0,0,1,.538,0l18.076,10.422a.614.614,0,0,1,.308.5V86.724a.581.581,0,0,1-.269.5L452.263,97.646a.557.557,0,0,1-.538,0l-4.653-2.769a.484.484,0,0,0-.461,0,11.982,11.982,0,0,1-2.731,1.23c-.3.1-.747.265.154.77l6.076,3.576a3.8,3.8,0,0,0,3.769,0l18.114-10.422a3.824,3.824,0,0,0,1.884-3.307V65.841a3.818,3.818,0,0,0-1.884-3.307l-18.114-10.46a3.77,3.77,0,0,0-1.884-.462Z" transform="translate(-430.111 -51.611)" fill="#83cd29"/>
      <path id="Path_2037" data-name="Path 2037" d="M472.413,79.528c-5.158,0-8.23,2.2-8.23,5.846,0,3.96,3.049,5.048,8,5.538,5.922.58,6.384,1.45,6.384,2.615,0,2.022-1.612,2.884-5.422,2.884-4.788,0-5.84-1.2-6.192-3.576a.522.522,0,0,0-.5-.462h-2.346a.549.549,0,0,0-.538.539c0,3.048,1.658,6.653,9.576,6.653,5.732,0,9.038-2.25,9.038-6.192,0-3.907-2.67-4.957-8.23-5.691-5.618-.744-6.153-1.108-6.153-2.423,0-1.086.454-2.539,4.615-2.539,3.717,0,5.091.8,5.654,3.308a.526.526,0,0,0,.5.423h2.347a.568.568,0,0,0,.384-.192.5.5,0,0,0,.154-.384C481.088,81.558,478.21,79.528,472.413,79.528Z" transform="translate(-445.685 -64.606)" fill="#83cd29"/>
    </g>
    <path id="Path_2038" data-name="Path 2038" d="M145.691.383a1.151,1.151,0,0,0-1.154,1.153V30.957a.778.778,0,0,1-.384.692.8.8,0,0,1-.808,0l-4.807-2.769a2.3,2.3,0,0,0-2.307,0L117.039,39.956a2.363,2.363,0,0,0-1.153,2.039V64.146a2.3,2.3,0,0,0,1.153,2L136.23,77.222a2.3,2.3,0,0,0,2.307,0l19.191-11.076a2.3,2.3,0,0,0,1.154-2V8.921a2.344,2.344,0,0,0-1.192-2.039L146.267.5a1.123,1.123,0,0,0-.577-.115ZM22.24,28.034A2.167,2.167,0,0,0,21.2,28.3L2.01,39.379a2.3,2.3,0,0,0-1.153,2L.9,71.108a1.135,1.135,0,0,0,.577,1,1.12,1.12,0,0,0,1.154,0L14.01,65.57a2.35,2.35,0,0,0,1.192-2V49.686a2.3,2.3,0,0,1,1.154-2L21.2,44.879a2.316,2.316,0,0,1,2.307,0l4.846,2.807a2.3,2.3,0,0,1,1.154,2V63.569a2.353,2.353,0,0,0,1.192,2l11.384,6.538a1.12,1.12,0,0,0,1.154,0,1.157,1.157,0,0,0,.577-1l.037-29.729a2.288,2.288,0,0,0-1.153-2L23.509,28.3a2.155,2.155,0,0,0-1.038-.269Zm172.447.269a2.3,2.3,0,0,0-1.153.308L174.342,39.687a2.3,2.3,0,0,0-1.154,2V63.838a2.317,2.317,0,0,0,1.192,2l19.037,10.845a2.309,2.309,0,0,0,2.269.037L207.224,70.3a1.166,1.166,0,0,0,.615-1,1.136,1.136,0,0,0-.577-1L187.956,57.223a1.243,1.243,0,0,1-.615-1.039V49.263a1.187,1.187,0,0,1,.615-1l6-3.462a1.152,1.152,0,0,1,1.154,0l6,3.462a1.15,1.15,0,0,1,.577,1v5.461a1.153,1.153,0,0,0,1.73,1l11.5-6.69a2.312,2.312,0,0,0,1.154-2V41.687a2.308,2.308,0,0,0-1.154-2L195.84,28.611a2.287,2.287,0,0,0-1.154-.307ZM137.306,44.84a.644.644,0,0,1,.308.076l6.577,3.807a.6.6,0,0,1,.308.5v7.615a.594.594,0,0,1-.308.5l-6.577,3.807a.582.582,0,0,1-.577,0l-6.576-3.807a.6.6,0,0,1-.308-.5V49.224a.6.6,0,0,1,.308-.5l6.576-3.807a.507.507,0,0,1,.269-.076h0Z" fill="#404137"/>
    <path id="Path_2039" data-name="Path 2039" d="M129.992,52.4a2.3,2.3,0,0,0-1.153.308L109.648,63.748a2.362,2.362,0,0,0-1.154,2.038V87.937a2.3,2.3,0,0,0,1.154,2l19.191,11.076a2.3,2.3,0,0,0,2.307,0l19.191-11.076a2.3,2.3,0,0,0,1.153-2V65.786a2.361,2.361,0,0,0-1.153-2.038L131.146,52.71A2.3,2.3,0,0,0,129.992,52.4ZM244.751,72.17a.471.471,0,0,0-.23.038l-3.692,2.154a.449.449,0,0,0-.231.385v4.23a.449.449,0,0,0,.231.385l3.692,2.115a.4.4,0,0,0,.423,0l3.692-2.116a.452.452,0,0,0,.231-.384V74.746a.452.452,0,0,0-.231-.384l-3.692-2.154a.32.32,0,0,0-.192-.037Z" transform="translate(-50.104 -24.214)" fill="#83cd29"/>
  </g>
</svg>
