<svg xmlns="http://www.w3.org/2000/svg" width="184.633" height="166" viewBox="0 0 184.633 166">
  <g id="react" transform="translate(-0.754 -0.785)">
    <path id="Path_2032" data-name="Path 2032" d="M.754,83.486c0,13.944,13.616,26.96,35.081,34.3-4.287,21.579-.768,38.973,10.984,45.75,12.079,6.966,30.074,2.144,47.154-12.786,16.649,14.328,33.475,19.966,45.217,13.17,12.068-6.986,15.738-25.559,11.333-47.812,22.358-7.392,34.864-18.491,34.864-32.618,0-13.62-13.64-25.4-34.817-32.693,4.742-23.173.724-40.144-11.514-47.2-11.8-6.8-28.821-.874-45.715,13.828C75.765,1.815,58.912-2.949,46.686,4.128,34.9,10.952,31.535,28.662,35.835,50.64,15.094,57.871.754,69.921.754,83.486Z" transform="translate(0 0)" fill="#fff"/>
    <path id="Path_2033" data-name="Path 2033" d="M150.06,61.8q-2.618-.9-5.279-1.663.441-1.792.816-3.6c4-19.4,1.383-35.021-7.538-40.165-8.553-4.933-22.543.21-36.672,12.506Q99.3,30.7,97.3,32.623q-1.335-1.28-2.717-2.509C79.78,16.966,64.938,11.426,56.026,16.585,47.48,21.532,44.949,36.222,48.546,54.6q.537,2.73,1.212,5.431c-2.1.6-4.128,1.232-6.069,1.908C26.33,67.995,15.243,77.481,15.243,87.319c0,10.162,11.9,20.355,29.983,26.535q2.2.748,4.434,1.386-.726,2.908-1.288,5.854c-3.43,18.062-.751,32.4,7.772,37.32,8.8,5.076,23.578-.142,37.965-12.717q1.706-1.491,3.422-3.154,2.159,2.083,4.432,4.044c13.936,11.992,27.7,16.834,36.215,11.9,8.8-5.091,11.653-20.5,7.942-39.243q-.425-2.148-.983-4.383,1.557-.459,3.049-.952c18.8-6.228,31.028-16.3,31.028-26.594,0-9.874-11.444-19.424-29.153-25.52Z" transform="translate(-3.975 -3.766)" fill="#53c1de"/>
    <path id="Path_2034" data-name="Path 2034" d="M148.63,109.907c-.9.3-1.816.583-2.754.861A164.4,164.4,0,0,0,137.573,90a164.333,164.333,0,0,0,7.98-20.47c1.677.486,3.305,1,4.874,1.538,15.174,5.223,24.429,12.946,24.429,18.9,0,6.339-10,14.568-26.226,19.946ZM141.9,123.252c1.641,8.289,1.875,15.783.788,21.641-.977,5.264-2.94,8.773-5.369,10.179-5.168,2.991-16.219-.9-28.136-11.152q-2.05-1.763-4.123-3.759A164.609,164.609,0,0,0,118.8,122.708a163.518,163.518,0,0,0,22.208-3.423q.5,2.025.888,3.967Zm-68.1,31.3c-5.049,1.783-9.069,1.834-11.5.432-5.173-2.983-7.322-14.5-4.39-29.945q.523-2.738,1.2-5.444a164.714,164.714,0,0,0,22.1,3.2,170.453,170.453,0,0,0,14.075,17.39q-1.526,1.477-3.124,2.877c-6.362,5.562-12.737,9.506-18.355,11.491ZM50.14,109.868c-8-2.733-14.6-6.284-19.124-10.159-4.067-3.483-6.12-6.941-6.12-9.747,0-5.97,8.9-13.586,23.748-18.762q2.8-.97,5.644-1.776a167.993,167.993,0,0,0,7.992,20.709,170.545,170.545,0,0,0-8.091,21q-2.039-.584-4.048-1.267ZM58.068,55.9c-3.082-15.749-1.036-27.629,4.115-30.61,5.486-3.176,17.616,1.353,30.4,12.7.817.726,1.638,1.485,2.46,2.271A167.859,167.859,0,0,0,81.076,57.551a171.157,171.157,0,0,0-21.88,3.4q-.627-2.511-1.127-5.052ZM128.8,73.364q-2.4-4.153-4.986-8.2c5.232.66,10.244,1.538,14.951,2.613A149.414,149.414,0,0,1,133.514,81.9q-2.273-4.313-4.717-8.532ZM99.954,45.271A149.806,149.806,0,0,1,109.6,56.919q-9.684-.458-19.38,0c3.186-4.2,6.449-8.1,9.731-11.644ZM70.926,73.412Q68.513,77.6,66.3,81.892c-2.04-4.838-3.785-9.595-5.21-14.188,4.678-1.047,9.667-1.9,14.865-2.552q-2.61,4.071-5.027,8.261ZM76.1,115.271a149.147,149.147,0,0,1-15.111-2.43c1.448-4.675,3.231-9.534,5.315-14.476q2.224,4.3,4.649,8.485,2.473,4.271,5.148,8.421Zm24.046,19.875c-3.32-3.583-6.631-7.545-9.866-11.807q4.709.185,9.593.186,5.014,0,9.9-.22A148.962,148.962,0,0,1,100.148,135.147Zm33.433-37.033a148.765,148.765,0,0,1,5.506,14.424,148.661,148.661,0,0,1-15.3,2.607q2.6-4.121,5.034-8.344,2.474-4.29,4.755-8.688ZM122.758,103.3q-3.726,6.472-7.866,12.692c-4.865.348-9.892.527-15.016.527-5.1,0-10.066-.159-14.846-.469q-4.246-6.2-8.014-12.712-3.747-6.471-7-13.212Q73.258,83.391,77,76.911h0q3.733-6.477,7.95-12.657c4.877-.369,9.876-.562,14.931-.562,5.077,0,10.083.194,14.958.566q4.172,6.166,7.9,12.614,3.747,6.461,7.069,13.156-3.285,6.76-7.046,13.273Zm14.45-78.222c5.49,3.167,7.626,15.937,4.176,32.683q-.339,1.636-.737,3.26a167.8,167.8,0,0,0-21.924-3.464,164.551,164.551,0,0,0-13.86-17.3q1.842-1.776,3.771-3.459C120.739,26.267,132.053,22.108,137.208,25.081Z" transform="translate(-6.623 -6.408)" fill="#fff"/>
    <path id="Path_2035" data-name="Path 2035" d="M122.686,94.665a14.642,14.642,0,1,1-14.642,14.642,14.642,14.642,0,0,1,14.642-14.642" transform="translate(-29.433 -25.754)" fill="#53c1de"/>
  </g>
</svg>
