<svg xmlns="http://www.w3.org/2000/svg" width="150.629" height="143" viewBox="0 0 150.629 143">
  <path id="redux" d="M104.37,99.87A10.767,10.767,0,0,0,103.22,78.4h-.383A10.724,10.724,0,0,0,92.486,89.518a11.008,11.008,0,0,0,3.067,7.093c-6.517,12.843-16.484,22.236-31.436,30.1a51.836,51.836,0,0,1-31.244,5.943c-8.626-1.15-15.335-4.984-19.552-11.31-6.133-9.393-6.708-19.552-1.533-29.712A45.121,45.121,0,0,1,24.822,76.292c-.767-2.492-1.917-6.709-2.492-9.776C-5.464,86.644-2.588,113.863,5.846,126.706c6.325,9.585,19.168,15.527,33.353,15.527a47.148,47.148,0,0,0,11.5-1.342C75.235,136.1,93.828,121.531,104.37,99.87ZM138.106,76.1C123.538,59.04,102.07,49.648,77.535,49.648H74.468A10.533,10.533,0,0,0,65.075,43.9h-.384a10.738,10.738,0,0,0,.384,21.469h.383a10.8,10.8,0,0,0,9.393-6.518H78.3a73.057,73.057,0,0,1,40.829,12.46c9.584,6.326,16.484,14.569,20.318,24.536,3.259,8.051,3.067,15.91-.384,22.62-5.367,10.159-14.376,15.718-26.26,15.718a49.026,49.026,0,0,1-18.785-4.026c-2.108,1.917-5.942,4.984-8.626,6.9A59.177,59.177,0,0,0,110.12,143c18.4,0,32.011-10.16,37.187-20.319,5.559-11.118,5.175-30.287-9.2-46.58ZM40.732,103.128a10.767,10.767,0,0,0,10.734,10.351h.384a10.738,10.738,0,0,0-.384-21.469h-.383a3.265,3.265,0,0,0-1.342.191,70.234,70.234,0,0,1-9.967-42.554A51.421,51.421,0,0,1,51.083,19.935C56.641,12.842,67.375,9.392,74.66,9.2,94.978,8.817,103.6,34.12,104.178,44.28c2.492.575,6.709,1.917,9.584,2.875C111.462,16.1,92.294,0,73.893,0,56.641,0,40.732,12.46,34.406,30.862,25.589,55.4,31.339,78.976,42.073,97.569a8.613,8.613,0,0,0-1.342,5.559Z" transform="translate(0)" fill="#764abc"/>
</svg>
