<svg id="web-programming" xmlns="http://www.w3.org/2000/svg" width="66.075" height="58.296" viewBox="0 0 66.075 58.296">
  <path id="Path_2060" data-name="Path 2060" d="M123.149,195.192a1.086,1.086,0,0,1-.706-.261l-7.059-6.011a1.091,1.091,0,0,1,0-1.661l7.059-6.011a1.091,1.091,0,1,1,1.414,1.661l-6.083,5.18,6.083,5.18a1.091,1.091,0,0,1-.708,1.922Zm0,0" transform="translate(-97.079 -152.784)"/>
  <path id="Path_2061" data-name="Path 2061" d="M250.8,195.192a1.091,1.091,0,0,1-.708-1.922l6.083-5.18-6.083-5.18a1.091,1.091,0,0,1,1.414-1.661l7.059,6.011a1.091,1.091,0,0,1,0,1.661l-7.059,6.011A1.086,1.086,0,0,1,250.8,195.192Zm0,0" transform="translate(-210.794 -152.784)"/>
  <path id="Path_2062" data-name="Path 2062" d="M190.046,176.094a1.109,1.109,0,0,1-.226-.024,1.091,1.091,0,0,1-.842-1.292l4.4-20.888a1.091,1.091,0,0,1,2.135.45l-4.4,20.888A1.091,1.091,0,0,1,190.046,176.094Zm0,0" transform="translate(-159.508 -129.177)"/>
  <path id="Path_2063" data-name="Path 2063" d="M58.751,58.3H7.324A7.333,7.333,0,0,1,0,50.972V7.324A7.333,7.333,0,0,1,7.324,0H58.751a7.333,7.333,0,0,1,7.324,7.324V50.972A7.333,7.333,0,0,1,58.751,58.3ZM7.324,2.182A5.149,5.149,0,0,0,2.182,7.324V50.972a5.149,5.149,0,0,0,5.143,5.143H58.751a5.149,5.149,0,0,0,5.143-5.143V7.324a5.149,5.149,0,0,0-5.143-5.143Zm0,0"/>
  <path id="Path_2064" data-name="Path 2064" d="M64.984,100.272H1.091a1.091,1.091,0,0,1,0-2.182H64.984a1.091,1.091,0,1,1,0,2.182Zm0,0" transform="translate(0 -82.804)"/>
  <path id="Path_2065" data-name="Path 2065" d="M100.9,41.193a3.452,3.452,0,1,1,3.452-3.452A3.457,3.457,0,0,1,100.9,41.193Zm0-4.723a1.27,1.27,0,1,0,1.27,1.27A1.272,1.272,0,0,0,100.9,36.471Zm0,0" transform="translate(-82.263 -28.946)"/>
  <path id="Path_2066" data-name="Path 2066" d="M32.839,40.979a3.452,3.452,0,1,1,3.452-3.452A3.456,3.456,0,0,1,32.839,40.979Zm0-4.723a1.27,1.27,0,1,0,1.27,1.27A1.272,1.272,0,0,0,32.839,36.256Zm0,0" transform="translate(-24.807 -28.764)"/>
  <path id="Path_2067" data-name="Path 2067" d="M168.967,41.408a3.452,3.452,0,1,1,3.452-3.452A3.456,3.456,0,0,1,168.967,41.408Zm0-4.723a1.27,1.27,0,1,0,1.27,1.27A1.272,1.272,0,0,0,168.967,36.685Zm0,0" transform="translate(-139.722 -29.127)"/>
</svg>
