<svg id="Page-1" xmlns="http://www.w3.org/2000/svg" width="48.734" height="58.478" viewBox="0 0 48.734 58.478">
  <g id="_015---Potato-Chips" data-name="015---Potato-Chips" transform="translate(0 0)">
    <path id="Shape" d="M3.953,57.6a1.949,1.949,0,0,0,2-.1l.868-.585,1.842,1.228a1.949,1.949,0,0,0,2.163,0l1.843-1.228,1.842,1.228a1.949,1.949,0,0,0,2.163,0l1.843-1.228,1.842,1.228a1.949,1.949,0,0,0,2.163,0l1.843-1.228,1.842,1.228a1.949,1.949,0,0,0,2.163,0l1.843-1.228,1.842,1.228a1.949,1.949,0,0,0,2.163,0l1.843-1.228,1.842,1.228a1.944,1.944,0,0,0,2.163,0l1.843-1.228.868.579a1.949,1.949,0,0,0,3.03-1.619V51.787A98.386,98.386,0,0,0,48.734,29.24,98.386,98.386,0,0,0,45.81,6.7V2.6A1.949,1.949,0,0,0,42.779.975l-.868.585L40.069.327a1.949,1.949,0,0,0-2.163,0L36.063,1.559,34.221.327a1.949,1.949,0,0,0-2.163,0L30.215,1.559,28.373.327a1.949,1.949,0,0,0-2.163,0L24.367,1.559,22.525.327a1.949,1.949,0,0,0-2.163,0L18.519,1.559,16.677.327a1.949,1.949,0,0,0-2.163,0L12.671,1.559,10.829.327a1.949,1.949,0,0,0-2.163,0L6.823,1.559,5.954.975A1.949,1.949,0,0,0,2.924,2.6V6.693A98.387,98.387,0,0,0,0,29.24,98.386,98.386,0,0,0,2.924,51.784v4.094A1.949,1.949,0,0,0,3.953,57.6ZM43.86,55.881l-.868-.578a1.944,1.944,0,0,0-2.162,0l-1.843,1.228L37.145,55.3a1.945,1.945,0,0,0-2.163,0l-1.843,1.228L31.3,55.3a1.949,1.949,0,0,0-2.163,0l-1.843,1.228L25.449,55.3a1.949,1.949,0,0,0-2.163,0l-1.843,1.228L19.6,55.3a1.949,1.949,0,0,0-2.163,0l-1.843,1.228L13.753,55.3a1.949,1.949,0,0,0-2.163,0L9.747,56.531,7.9,55.3a1.949,1.949,0,0,0-2.163,0l-.868.578V52.632H43.86ZM4.873,2.6l.867.578a1.949,1.949,0,0,0,2.163,0L9.747,1.949l1.842,1.228a1.949,1.949,0,0,0,2.163,0l1.843-1.228,1.842,1.228a1.949,1.949,0,0,0,2.163,0l1.843-1.228,1.842,1.228a1.949,1.949,0,0,0,2.163,0l1.843-1.228,1.842,1.228a1.949,1.949,0,0,0,2.163,0l1.843-1.228,1.842,1.228a1.949,1.949,0,0,0,2.163,0l1.843-1.228,1.842,1.228a1.949,1.949,0,0,0,2.163,0L43.86,2.6V5.848H4.873ZM4.656,7.8H44.079A96.345,96.345,0,0,1,46.784,29.24a96.447,96.447,0,0,1-2.706,21.443H4.656A96.266,96.266,0,0,1,1.949,29.24,96.429,96.429,0,0,1,4.656,7.8Z" transform="translate(0 0)"/>
    <path id="Shape-2" data-name="Shape" d="M20.772,36.645c2.974,0,4.806-1.588,6.193-3.584a8.772,8.772,0,0,0,3.554.66c4.543,0,6.823-4.374,6.823-6.823,0-3.9-3.668-3.9-4.873-3.9a8.228,8.228,0,0,0-3.36,1.077,6.425,6.425,0,0,1-3.463.872,8.787,8.787,0,0,1-2.562-.365,18.153,18.153,0,0,0-5.235-.61c-3.716,0-5.848,2.132-5.848,5.848,0,1.77,1.611,6.823,8.772,6.823ZM32.687,24.954c2.7.053,2.706,1.055,2.706,1.944,0,1.342-1.5,4.873-4.873,4.873A7.228,7.228,0,0,1,28,31.382c.286-.51.558-1.023.823-1.526C29.949,27.72,31.016,25.713,32.687,24.954Zm-14.838.97a16.243,16.243,0,0,1,4.748.549,10.65,10.65,0,0,0,3.05.426,7.636,7.636,0,0,0,2.845-.439c-.5.794-.946,1.646-1.389,2.488C25.548,31.9,24.08,34.7,20.772,34.7c-6.53,0-6.823-4.825-6.823-4.873,0-1.674.4-3.9,3.9-3.9Z" transform="translate(-0.304 -0.583)"/>
    <path id="Shape-3" data-name="Shape" d="M24.494,44.24c10.749,0,19.494-6.559,19.494-14.62S35.242,15,24.494,15,5,21.559,5,29.62,13.745,44.24,24.494,44.24Zm0-27.291c9.674,0,17.544,5.684,17.544,12.671S34.167,42.291,24.494,42.291,6.949,36.607,6.949,29.62,14.82,16.949,24.494,16.949Z" transform="translate(-0.127 -0.38)"/>
  </g>
</svg>
