<svg id="support" xmlns="http://www.w3.org/2000/svg" width="66.735" height="60.62" viewBox="0 0 66.735 60.62">
  <g id="Group_96" data-name="Group 96" transform="translate(60.946 39.792)">
    <g id="Group_95" data-name="Group 95">
      <path id="Path_2068" data-name="Path 2068" d="M472.99,332.285l-3.182-3.156a1.3,1.3,0,1,0-1.836,1.851l3.181,3.156a1.3,1.3,0,0,0,1.836-1.851Z" transform="translate(-467.587 -328.751)"/>
    </g>
  </g>
  <g id="Group_98" data-name="Group 98" transform="translate(57.699 36.56)">
    <g id="Group_97" data-name="Group 97">
      <path id="Path_2069" data-name="Path 2069" d="M444.9,304.333a1.3,1.3,0,0,0-1.844,0l0,0a1.3,1.3,0,1,0,1.846,0Z" transform="translate(-442.675 -303.952)"/>
    </g>
  </g>
  <g id="Group_100" data-name="Group 100" transform="translate(0 0)">
    <g id="Group_99" data-name="Group 99" transform="translate(0 0)">
      <path id="Path_2070" data-name="Path 2070" d="M48.812,66.415,61.459,53.768a4.909,4.909,0,0,0-2.369-8.258A4.914,4.914,0,0,0,55.468,38.6a4.9,4.9,0,0,0-3.826-6.376,4.915,4.915,0,0,0-7.012-5.86l-.126-.135a8.7,8.7,0,0,0-6.348-2.764H27.919a1.3,1.3,0,0,0-1.3,1.3v1.71a5.922,5.922,0,0,0,.337,1.977A4.913,4.913,0,0,0,20.4,34.533a4.913,4.913,0,0,0-3.832,6.377,4.913,4.913,0,0,0-3.618,6.908,4.913,4.913,0,0,0-2.37,8.261l2.6,2.6-12.8,12.8a1.3,1.3,0,1,0,1.844,1.844L15.152,60.4a4.91,4.91,0,0,0,7.334-4.47c.066,0,.132,0,.2,0a4.909,4.909,0,0,0,4.913-4.91c0-.066,0-.132,0-.2.065,0,.131,0,.2,0a4.909,4.909,0,0,0,4.913-4.91c0-.066,0-.132,0-.2.065,0,.131,0,.2,0a4.91,4.91,0,0,0,3.8-8.024l8.654-8.654a2.305,2.305,0,1,1,3.26,3.26L47.33,33.585,42.7,38.215a1.3,1.3,0,1,0,1.844,1.844l4.629-4.629a2.305,2.305,0,1,1,3.26,3.26l-1.276,1.276L47.8,43.319a1.3,1.3,0,1,0,1.844,1.844L53,41.809a2.305,2.305,0,1,1,3.26,3.26L54.51,46.821l-1.6,1.6a1.3,1.3,0,1,0,1.844,1.844l1.6-1.6a2.305,2.305,0,0,1,3.259,3.262L46.967,64.572a17.661,17.661,0,0,1-11.884,5.177,1.3,1.3,0,0,0-.876.383L22.523,81.858A1.3,1.3,0,1,0,24.37,83.7l8.593-8.625a12.118,12.118,0,0,0,7.36,1.893l6.725,6.725a1.3,1.3,0,0,0,1.844-1.844L41.741,74.7a1.3,1.3,0,0,0-1.028-.378l-.413.034a9.517,9.517,0,0,1-5.44-1.184l.838-.841A20.257,20.257,0,0,0,48.812,66.415Zm-29.6-8.656a2.3,2.3,0,0,1-3.26,0l-3.523-3.522a2.305,2.305,0,1,1,3.26-3.26L19.211,54.5A2.308,2.308,0,0,1,19.211,57.759Zm5.1-5.1a2.308,2.308,0,0,1-3.26,0l-3.523-3.523L15.78,47.381a2.305,2.305,0,1,1,3.26-3.26l5.274,5.274h0a2.306,2.306,0,0,1,0,3.26Zm5.1-5.1a2.308,2.308,0,0,1-3.26,0L19.608,41a2.305,2.305,0,0,1,3.259-3.261l2.985,2.985,3.566,3.566h0a2.306,2.306,0,0,1,0,3.26Zm5.1-5.1a2.308,2.308,0,0,1-3.26,0l-6.55-6.55,0,0-1.274-1.274a2.305,2.305,0,0,1,3.26-3.26l7.826,7.826a2.306,2.306,0,0,1,0,3.261Zm.343-6.6-3.581-3.581a5.965,5.965,0,0,0,1.248.133h.029l3.578-.017a1.3,1.3,0,0,0-.006-2.607h-.006l-3.578.017h-.016a3.311,3.311,0,0,1-3.311-3.311v-.406h8.933A6.084,6.084,0,0,1,42.6,28l.053.057Z" transform="translate(0 -23.462)"/>
    </g>
  </g>
</svg>
