<svg id="brainstorm" xmlns="http://www.w3.org/2000/svg" width="69.992" height="61.851" viewBox="0 0 69.992 61.851">
  <path id="Path_2050" data-name="Path 2050" d="M66.327,27.082a1.354,1.354,0,0,0,.1-.279,6.178,6.178,0,0,0-2.1-6.473c-.3-2.44-2.6-4-4.482-4.754a8.127,8.127,0,0,0-2.6-5.558c-2.516-2.28-6.121-2.587-7.884-2.587H49.3C47.586,4.5,43.656,4.36,41.365,4.786A31.224,31.224,0,0,0,37.332,3.7,1.372,1.372,0,1,0,36.8,6.391,28.735,28.735,0,0,1,40.815,7.5a1.366,1.366,0,0,0,.773.043c.046-.011,4.575-1.04,5.568,1.755a1.376,1.376,0,0,0,1.425.906c.043,0,4.365-.384,6.826,1.856a5.193,5.193,0,0,1,1.619,3.085,7.029,7.029,0,0,0-6.242,3.716A1.372,1.372,0,1,0,53.232,20.1c1.266-2.5,4.41-2.253,4.981-2.185.507.167,3.516,1.239,3.4,3.078a1.372,1.372,0,0,0,.74,1.309,3.22,3.22,0,0,1,.914.851,3.456,3.456,0,0,1,.544,2.76l-.092.123a6.175,6.175,0,0,0-5.771,5.536,1.373,1.373,0,0,0,1.214,1.515,1.467,1.467,0,0,0,.152.008,1.372,1.372,0,0,0,1.362-1.222,3.485,3.485,0,0,1,3.363-3.108c6.013,4.411,1.769,14.7,1.488,15.357-1.489,2.846-3.357,4.3-5.7,4.435a20.171,20.171,0,0,0-8.226-3.8,1.372,1.372,0,1,0-.64,2.669,17.845,17.845,0,0,1,6.992,3.15,5.124,5.124,0,0,1-.152,1.11c-.976,3.878-6.225,5.912-11.7,4.533a14.127,14.127,0,0,1-2.609-.936A1.372,1.372,0,0,0,41.532,56.4a18.6,18.6,0,0,0,.226,5.106l-3.6.6c-.154-.546-.308-1.184-.475-1.878-.805-3.335-1.968-8.146-5.388-12.093a53.064,53.064,0,0,1,8.167-1.363,1.372,1.372,0,0,0-.224-2.735A58.3,58.3,0,0,0,29.36,46.062a30.214,30.214,0,0,1-6.2.259c-5.949-.894-7.61-4.488-7.223-7.3a1.372,1.372,0,0,0-1.685-1.52l-.995.244c-1.735-.086-6.072-.758-8.023-3.03a4.461,4.461,0,0,1-.992-3.647,1.372,1.372,0,0,0-.722-1.381,1.728,1.728,0,0,1-.734-.975,3.1,3.1,0,0,1,.771-2.234A1.373,1.373,0,0,0,3.732,25.2a7.961,7.961,0,0,1,.133-5.371A5.932,5.932,0,0,1,7.529,16.87a1.359,1.359,0,0,0,.923-1.182,4.214,4.214,0,0,1,1.444-2.7,4.633,4.633,0,0,1,3.755-.5,1.373,1.373,0,0,0,1.624-1.129c0-.03.619-2.886,5.974-2.987.812,1.109,2.6,4.023,1.275,6.634a1.373,1.373,0,1,0,2.446,1.246,7.075,7.075,0,0,0,.769-2.886,4.535,4.535,0,0,1,2.815-.38,2.311,2.311,0,0,1,1.408,1.328,1.373,1.373,0,0,0,2.468-1.2,5.038,5.038,0,0,0-3.094-2.756,6.629,6.629,0,0,0-3.952.209,12.315,12.315,0,0,0-1.417-3.073A17.931,17.931,0,0,1,26.558,6.6a1.372,1.372,0,1,0-.7-2.654,18.8,18.8,0,0,0-4.314,1.679c-5.558,0-7.707,2.429-8.516,4a6.668,6.668,0,0,0-4.808,1.184,6.686,6.686,0,0,0-2.348,3.755,8.288,8.288,0,0,0-4.487,4.079,10.3,10.3,0,0,0-.443,6.8,5.1,5.1,0,0,0-.836,3.892,4.274,4.274,0,0,0,1.34,2.219,7,7,0,0,0,1.7,4.953C6.1,39.944,12,40.425,13.159,40.487c.3,3.827,3.213,7.6,9.632,8.554l.062.008c.057.006.768.075,1.969.075a36.487,36.487,0,0,0,4.364-.273c3.786,3.579,4.96,8.436,5.825,12.018a24.732,24.732,0,0,0,.941,3.3,1.372,1.372,0,0,0,1.27.853A1.353,1.353,0,0,0,37.448,65l6.21-1.033a1.372,1.372,0,0,0,1.093-1.736,14.4,14.4,0,0,1-.549-3.716c.4.135.812.254,1.226.358a15.191,15.191,0,0,0,9.439-.507,8.982,8.982,0,0,0,5.594-6.017,7.888,7.888,0,0,0,.2-1.122c2.343-.326,5.163-1.72,7.325-5.885.013-.025.025-.049.036-.074a26.33,26.33,0,0,0,1.867-7.18C70.387,33.305,69.161,29.532,66.327,27.082Zm0,0" transform="translate(-0.001 -3.17)"/>
  <path id="Path_2051" data-name="Path 2051" d="M230.106,135.2a10.617,10.617,0,0,0,1.683,3.827,9.272,9.272,0,0,0,1.16,1.348c-.247,1.41-2.4,2.181-2.454,2.2a1.372,1.372,0,0,0,.882,2.6,6.9,6.9,0,0,0,3.928-3.205,9.36,9.36,0,0,0,3.9.794c.1,0,.2,0,.3,0a1.373,1.373,0,0,0-.035-2.745h-.035c-5.507.138-6.58-5.073-6.626-5.312a1.372,1.372,0,0,0-2.7.5Zm0,0" transform="translate(-198.183 -115.319)"/>
  <path id="Path_2052" data-name="Path 2052" d="M324.186,153.007c2.383-4.164,1.442-7.383.233-9.351a10.259,10.259,0,0,0-3.194-3.218,1.372,1.372,0,0,0-1.395,2.364,7.537,7.537,0,0,1,2.3,2.368c1.143,1.922,1.034,4.1-.324,6.473a1.373,1.373,0,1,0,2.383,1.363Zm0,0" transform="translate(-275.531 -121.077)"/>
  <path id="Path_2053" data-name="Path 2053" d="M397.062,232.074a1.372,1.372,0,1,0-1.6-2.234,4.551,4.551,0,0,1-3.619,1.067,4.46,4.46,0,0,1-2.533-2.055,1.372,1.372,0,0,0-2.43,1.276,7.447,7.447,0,0,0,3.618,3.232,6.38,6.38,0,0,0,1.785,6.716,1.372,1.372,0,1,0,1.761-2.106c-1.514-1.267-1.089-3.345-.79-4.286A8.349,8.349,0,0,0,397.062,232.074Zm0,0" transform="translate(-333.862 -196.937)"/>
  <path id="Path_2054" data-name="Path 2054" d="M98.94,184.987a1.372,1.372,0,1,0-2.723.345c.238,1.878-1.235,3.245-2.108,3.879a8.553,8.553,0,0,0-4.778-.651,1.372,1.372,0,0,0,.472,2.7,5.166,5.166,0,0,1,3.726.826,4.183,4.183,0,0,1,1.137,3.411,1.373,1.373,0,0,0,1.34,1.4h.033a1.372,1.372,0,0,0,1.371-1.34,7.434,7.434,0,0,0-1.169-4.535A6.744,6.744,0,0,0,98.94,184.987Zm0,0" transform="translate(-76.143 -158.663)"/>
  <path id="Path_2055" data-name="Path 2055" d="M51,110.05a3.07,3.07,0,0,1-.661.967,4.419,4.419,0,0,1-1.714,1.051,1.372,1.372,0,0,0,.724,2.647,7.153,7.153,0,0,0,3.142-1.985,5.232,5.232,0,0,0,3.172,1.035,6.293,6.293,0,0,0,1.007-.083,7.986,7.986,0,0,0,2.847-1.066,1.372,1.372,0,1,0-1.493-2.3,5.424,5.424,0,0,1-1.79.66,2.6,2.6,0,0,1-2.413-.7,7.572,7.572,0,0,0-.117-3.938,1.372,1.372,0,0,0-2.649.719,4.493,4.493,0,0,1-.029,2.94Zm0,0" transform="translate(-41.11 -90.921)"/>
  <path id="Path_2056" data-name="Path 2056" d="M268.755,49.2a7.157,7.157,0,0,0-5.094-.634,1.373,1.373,0,0,0,.729,2.646,4.348,4.348,0,0,1,2.965.348,3.723,3.723,0,0,1,1.593,2.5,1.373,1.373,0,0,0,1.335,1.058,1.389,1.389,0,0,0,.315-.037,1.372,1.372,0,0,0,1.022-1.65A6.341,6.341,0,0,0,268.755,49.2Zm0,0" transform="translate(-226.747 -41.747)"/>
  <path id="Path_2057" data-name="Path 2057" d="M215.543,239.506a4.964,4.964,0,0,1-4.2,2.674,7.031,7.031,0,0,1-2.679-.405,1.372,1.372,0,0,0-1.044,2.538,9.52,9.52,0,0,0,3.4.62q.17,0,.345-.007a7.641,7.641,0,0,0,6.552-4.04,1.372,1.372,0,1,0-2.373-1.38Zm0,0" transform="translate(-178.506 -206.176)"/>
  <path id="Path_2058" data-name="Path 2058" d="M327.742,298.85a1.372,1.372,0,1,0-.2,1.764A1.38,1.38,0,0,0,327.742,298.85Zm0,0" transform="translate(-280.768 -257.471)"/>
  <path id="Path_2059" data-name="Path 2059" d="M221.545,1.895a1.371,1.371,0,0,0,2.566-.084,1.372,1.372,0,1,0-2.566.084Zm0,0" transform="translate(-191.172 -0.001)"/>
</svg>
