<svg id="headphones" xmlns="http://www.w3.org/2000/svg" width="65.217" height="60.454" viewBox="0 0 65.217 60.454">
  <path id="Path_2075" data-name="Path 2075" d="M391.266,333a1.273,1.273,0,1,0,.9,1.559A1.271,1.271,0,0,0,391.266,333Zm0,0" transform="translate(-340.03 -290.546)"/>
  <path id="Path_2076" data-name="Path 2076" d="M103.947,335.459a1.272,1.272,0,1,0-1.559-.9A1.272,1.272,0,0,0,103.947,335.459Zm0,0" transform="translate(-89.308 -290.546)"/>
  <path id="Path_2077" data-name="Path 2077" d="M63.758,40.858a30.835,30.835,0,0,0,1.429-9.042A31.14,31.14,0,0,0,55.471,9.3,32.956,32.956,0,0,0,32.608,0C15.052,0,.029,14.205.029,31.816A30.835,30.835,0,0,0,1.458,40.86a3.837,3.837,0,0,0-1.33,3.988L3.423,57.14a3.816,3.816,0,0,0,4.676,2.7L12,58.8a3.826,3.826,0,0,0,4.135,1.528l4.917-1.319a3.822,3.822,0,0,0,2.7-4.675L19.138,37.12a3.823,3.823,0,0,0-4.677-2.7L9.546,35.738a3.794,3.794,0,0,0-1.378.692,22.452,22.452,0,0,1-.473-3.52A3.743,3.743,0,0,0,10.312,29.7c1.05-10.762,11.052-19.518,22.3-19.518S53.854,18.937,54.9,29.7a3.743,3.743,0,0,0,2.617,3.211,22.452,22.452,0,0,1-.473,3.52,3.8,3.8,0,0,0-1.378-.692l-4.916-1.317a3.822,3.822,0,0,0-4.677,2.7L41.466,54.33a3.822,3.822,0,0,0,2.7,4.675l4.918,1.319A3.825,3.825,0,0,0,53.218,58.8l3.9,1.046a3.817,3.817,0,0,0,4.674-2.7l3.3-12.294A3.84,3.84,0,0,0,63.758,40.858ZM10.2,38.2l4.916-1.318a1.274,1.274,0,0,1,1.559.9l4.61,17.21a1.274,1.274,0,0,1-.9,1.558l-1.229.329-2.3-8.605a1.273,1.273,0,1,0-2.458.659L16.7,57.535l-1.229.329a1.276,1.276,0,0,1-1.559-.9h0L9.3,39.754A1.274,1.274,0,0,1,10.2,38.2Zm.923,18.2-3.687.989a1.273,1.273,0,0,1-1.559-.9L2.587,44.191a1.278,1.278,0,0,1,.819-1.534c.029-.01.06-.019.081-.025l3.635-.975C7.494,42.583,6.816,40.459,11.127,56.393ZM2.608,33.088H5.155a25.908,25.908,0,0,0,1.119,6.161l-2.446.656A29.03,29.03,0,0,1,2.608,33.088Zm54.829-3.636c-1.2-12.33-12.394-21.816-24.829-21.816S8.981,17.128,7.778,29.452A1.245,1.245,0,0,1,6.53,30.543H2.605c.712-15.3,14.16-28,30-28s29.291,12.694,30,28H58.685A1.245,1.245,0,0,1,57.437,29.452Zm5.171,3.636a29.053,29.053,0,0,1-1.22,6.817l-2.447-.656a25.92,25.92,0,0,0,1.119-6.161ZM51.3,56.964h0a1.275,1.275,0,0,1-1.557.9l-1.23-.33,2.305-8.605a1.273,1.273,0,1,0-2.458-.659l-2.305,8.605-1.229-.33a1.274,1.274,0,0,1-.9-1.558l4.611-17.21a1.272,1.272,0,0,1,1.559-.9L55.011,38.2a1.274,1.274,0,0,1,.9,1.558ZM62.629,44.189,59.334,56.482a1.272,1.272,0,0,1-1.558.9l-3.688-.989c4.313-15.94,3.633-13.809,4-14.737,3.873,1.039,3.647.975,3.726,1A1.275,1.275,0,0,1,62.629,44.189Zm0,0" transform="translate(0.001 0)"/>
</svg>
