<svg id="happy" xmlns="http://www.w3.org/2000/svg" width="107" height="107" viewBox="0 0 107 107">
  <g id="Group_102" data-name="Group 102">
    <g id="Group_101" data-name="Group 101">
      <path id="Path_2071" data-name="Path 2071" d="M53.5,0A53.5,53.5,0,1,0,107,53.5,53.506,53.506,0,0,0,53.5,0Zm0,102.407A48.907,48.907,0,1,1,102.407,53.5,48.923,48.923,0,0,1,53.5,102.407Z"/>
    </g>
  </g>
  <g id="Group_104" data-name="Group 104" transform="translate(20.344 30.908)">
    <g id="Group_103" data-name="Group 103">
      <path id="Path_2072" data-name="Path 2072" d="M89.4,109.282A12.223,12.223,0,0,0,77.487,99.6a12,12,0,0,0-11.916,9.93,2.474,2.474,0,0,0,1.862,2.731H67.8a2.258,2.258,0,0,0,2.234-1.862,7.586,7.586,0,0,1,14.9-.124,2.289,2.289,0,0,0,4.469-.993Z" transform="translate(-65.557 -99.6)"/>
    </g>
  </g>
  <g id="Group_106" data-name="Group 106" transform="translate(62.176 30.908)">
    <g id="Group_105" data-name="Group 105">
      <path id="Path_2073" data-name="Path 2073" d="M224.2,109.282A12.223,12.223,0,0,0,212.287,99.6a12,12,0,0,0-11.916,9.93,2.474,2.474,0,0,0,1.862,2.731h.372a2.258,2.258,0,0,0,2.234-1.862,7.586,7.586,0,0,1,14.9-.124,2.289,2.289,0,1,0,4.469-.993Z" transform="translate(-200.357 -99.6)"/>
    </g>
  </g>
  <g id="Group_108" data-name="Group 108" transform="translate(19.278 58.13)">
    <g id="Group_107" data-name="Group 107">
      <path id="Path_2074" data-name="Path 2074" d="M128.369,187.408a2.687,2.687,0,0,0-3.227,1.862c-2.731,10.179-14.9,17.626-28.922,17.626S70.028,199.448,67.3,189.27a2.635,2.635,0,0,0-5.089,1.365C65.559,203.048,79.834,212.11,96.1,212.11c16.385,0,30.66-9.061,33.887-21.474A2.371,2.371,0,0,0,128.369,187.408Z" transform="translate(-62.121 -187.321)"/>
    </g>
  </g>
</svg>
