<svg xmlns="http://www.w3.org/2000/svg" width="237.761" height="45" viewBox="0 0 237.761 45">
  <g id="Sberbank" transform="translate(0.009 -0.01)">
    <path id="Path_45" data-name="Path 45" d="M145.325,92.472a10.477,10.477,0,0,0,3.613,2.473,14.146,14.146,0,0,0,5.2.888c1.014,0,1.963-.126,2.741-.192a10.965,10.965,0,0,0,2.281-.548c.7-.192,1.267-.51,1.837-.7a14.256,14.256,0,0,1,1.393-.7l-.707-1.486a12.4,12.4,0,0,1-1.206.548,13.1,13.1,0,0,1-1.267.5,6.387,6.387,0,0,1-1.585.318,10.275,10.275,0,0,1-2.094.126,6.771,6.771,0,0,1-3.613-.888,7.128,7.128,0,0,1-2.281-2.281,11.426,11.426,0,0,1-1.1-3.421,30.618,30.618,0,0,1-.318-4.309c0-1.206.126-2.473.192-3.739a9.381,9.381,0,0,1,.9-3.306,6.815,6.815,0,0,1,1.963-2.473,6.536,6.536,0,0,1,3.553-1.014,6.031,6.031,0,0,1,3.547,1.1,4.767,4.767,0,0,1,1.837,3.361H161.8V71.873c-.5-.192-1.014-.378-1.585-.548a8.6,8.6,0,0,0-1.837-.378c-.7-.126-1.267-.126-1.963-.192-.548,0-1.206-.126-1.645-.126a15.966,15.966,0,0,0-5.516.888,9.452,9.452,0,0,0-5.894,6.579,17.9,17.9,0,0,0-.7,5.39,16.492,16.492,0,0,0,.7,5.137,8.937,8.937,0,0,0,1.963,3.849Z" transform="translate(-83.335 -64.702)" fill="#2f9a41"/>
    <path id="Path_46" data-name="Path 46" d="M312.109,95.251a8.438,8.438,0,0,0,3.235-1.014,5.406,5.406,0,0,0,2.281-2.473,9.485,9.485,0,0,0,.888-4.436,8.992,8.992,0,0,0-.548-3.421,5.538,5.538,0,0,0-1.837-2.347,9.08,9.08,0,0,0-3.361-1.267,23.313,23.313,0,0,0-5.006-.378h-2.094V74.077a1.519,1.519,0,0,1,.378-1.206,3.29,3.29,0,0,1,1.585-.192h2.977a12.3,12.3,0,0,1,2.281.126,2.577,2.577,0,0,1,1.393.51,2.851,2.851,0,0,1,.888,1.206,13.229,13.229,0,0,1,.7,2.089h1.228V71.16H299v.762c.126,0,.192.126.5.126.318.126.51.192.548.318a2.3,2.3,0,0,1,.318.548c0,.318.126.548.126,1.014V92.691a2.484,2.484,0,0,1-.126,1.014c0,.318-.126.5-.318.548a.855.855,0,0,1-.548.318,1.1,1.1,0,0,1-.5.126v.762h9.129a38.38,38.38,0,0,0,3.981-.208Zm-5.982-1.776a.9.9,0,0,1-.318-.7c0-.318-.126-.7-.126-1.206v-10.2h2.094a5.171,5.171,0,0,1,4.057,1.458c.822.954,1.206,2.533,1.206,4.693a12.4,12.4,0,0,1-.378,3.421,4.825,4.825,0,0,1-1.1,1.963,7.5,7.5,0,0,1-1.458.888,8.477,8.477,0,0,1-1.776.192c-.548-.126-1.1-.126-1.393-.192A1.2,1.2,0,0,1,306.128,93.475Z" transform="translate(-153.957 -64.943)" fill="#2f9a41"/>
    <path id="Path_47" data-name="Path 47" d="M269.109,94.681c-.126,0-.192-.126-.5-.126-.318-.126-.51-.192-.548-.318a5.535,5.535,0,0,0-.318-.548c0-.318-.126-.548-.126-1.014V85.931h2.473a21.931,21.931,0,0,0,3.613-.318,8.635,8.635,0,0,0,3.043-1.1,5.411,5.411,0,0,0,2.094-2.347,9.08,9.08,0,0,0,.762-4.057,9.584,9.584,0,0,0-.7-3.739,6.475,6.475,0,0,0-1.974-2.133,6.58,6.58,0,0,0-2.851-.888,28.3,28.3,0,0,0-3.361-.192H261.06v.762c.126,0,.192.126.51.126.318.126.5.192.548.318a2.287,2.287,0,0,1,.318.548c0,.318.126.548.126,1.014v18.7a2.461,2.461,0,0,1-.126,1.014c0,.318-.126.5-.318.548a.855.855,0,0,1-.548.318,1.1,1.1,0,0,1-.51.126v.7h7.988l.06-.7ZM267.776,73.89a.943.943,0,0,1,.126-.548.548.548,0,0,1,.192-.378.779.779,0,0,1,.548-.192c.318,0,.548-.126,1.1-.126a16.8,16.8,0,0,1,1.776.192,4.293,4.293,0,0,1,1.458.888,6.655,6.655,0,0,1,1.014,1.645,9.868,9.868,0,0,1,.318,2.533,10.118,10.118,0,0,1-.888,4.693,3.288,3.288,0,0,1-3.169,1.645h-2.473Z" transform="translate(-136.819 -64.943)" fill="#2f9a41"/>
    <path id="Path_48" data-name="Path 48" d="M240.866,89.862h-1.585a19.768,19.768,0,0,1-.548,2.281,2.281,2.281,0,0,1-.762,1.267,1.87,1.87,0,0,1-1.393.5,13.12,13.12,0,0,1-2.473.126,10.993,10.993,0,0,1-2.281-.126,3.766,3.766,0,0,1-1.267-.378.981.981,0,0,1-.5-.762,4.342,4.342,0,0,1-.126-1.393V83.65h4.205c.378,0,.762.126,1.206.126a9.319,9.319,0,0,1,1.206.192,4.792,4.792,0,0,1,1.014.378V81.177a2.423,2.423,0,0,1-1.014.378,23.281,23.281,0,0,1-2.407.318h-4.249v-8.06a3.289,3.289,0,0,1,.192-1.1c.192-.192.51-.192,1.014-.192h2.665a12.315,12.315,0,0,1,2.281.126,2.8,2.8,0,0,1,1.393.5,2.851,2.851,0,0,1,.888,1.206,13.345,13.345,0,0,1,.7,2.094h1.267v-5.3H223.37v.762c.126,0,.192.126.5.126.318.126.5.192.548.318a2.288,2.288,0,0,1,.318.548c0,.318.126.548.126,1.014v18.7a2.473,2.473,0,0,1-.126,1.014c0,.318-.126.5-.318.548a.855.855,0,0,1-.548.318,1.1,1.1,0,0,1-.5.126v.7h17.5Z" transform="translate(-119.793 -64.943)" fill="#2f9a41"/>
    <path id="Path_49" data-name="Path 49" d="M195.73,95.251a8.438,8.438,0,0,0,3.235-1.014,5.894,5.894,0,0,0,2.347-2.473,9.474,9.474,0,0,0,.888-4.436,8.981,8.981,0,0,0-.548-3.421,5.538,5.538,0,0,0-1.837-2.347,9.08,9.08,0,0,0-3.361-1.267,23.3,23.3,0,0,0-5.006-.378h-2.094V74.077a1.524,1.524,0,0,1,.378-1.206,3.29,3.29,0,0,1,1.585-.192h2.977a12.309,12.309,0,0,1,2.281.126,2.8,2.8,0,0,1,1.393.51,2.851,2.851,0,0,1,.888,1.206,13.158,13.158,0,0,1,.7,2.089h1.267V71.16H182.67v.762c.126,0,.192.126.51.126.318.126.5.192.548.318a2.3,2.3,0,0,1,.318.548c0,.318.126.548.126,1.014v18.7a2.643,2.643,0,0,1-.126,1.014c0,.318-.126.5-.318.548a.855.855,0,0,1-.548.318,1.1,1.1,0,0,1-.51.126v.888H191.8C193.268,95.443,194.458,95.443,195.73,95.251Zm-5.96-1.776a.9.9,0,0,1-.318-.7c0-.318-.126-.7-.126-1.206v-10.2h2.094a5.171,5.171,0,0,1,4.057,1.458c.822.954,1.206,2.533,1.206,4.693a12.446,12.446,0,0,1-.378,3.421,4.825,4.825,0,0,1-1.1,1.963,7.489,7.489,0,0,1-1.458.888,8.466,8.466,0,0,1-1.776.192c-.548-.126-1.014-.126-1.393-.192a1.1,1.1,0,0,1-.811-.318Z" transform="translate(-101.408 -64.943)" fill="#2f9a41"/>
    <rect id="Rectangle_3" data-name="Rectangle 3" width="178.383" height="2.347" transform="translate(59.204 37.403)" fill="#2f9a41"/>
    <path id="Path_50" data-name="Path 50" d="M440.568,86.536c.51.7.888,1.267,1.393,1.837.378.548.888,1.206,1.267,1.776a15.5,15.5,0,0,0,1.267,1.776,17,17,0,0,1,1.267,1.963c.378.548.7,1.267,1.014,1.837l8.224.126c-.888-.888-1.645-1.776-2.533-2.665-.762-.888-1.458-1.645-1.968-2.155-.762-.888-1.458-1.645-2.089-2.347s-1.267-1.458-1.837-2.155a24.45,24.45,0,0,1-1.645-2.155c-.444-.7-1.1-1.585-1.585-2.347l.378-.5c.548-.762,1.267-1.585,2.094-2.533a26.544,26.544,0,0,1,2.473-2.851,34.318,34.318,0,0,1,2.549-2.654,22.266,22.266,0,0,1,2.281-1.837h-5.708a15.254,15.254,0,0,1-.888,1.776,15.854,15.854,0,0,1-1.393,2.253c-.5.762-1.1,1.645-1.585,2.533s-1.1,1.645-1.645,2.473a22.824,22.824,0,0,1-1.585,2.155c-.5.7-.888,1.206-1.206,1.645C439.554,85.138,440.058,85.839,440.568,86.536Z" transform="translate(-217.248 -65.165)" fill="#2f9a41"/>
    <path id="Path_51" data-name="Path 51" d="M433.918,94.717c-.126,0-.192-.126-.51-.126-.318-.126-.5-.192-.548-.318a2.281,2.281,0,0,1-.318-.548c0-.318-.126-.548-.126-1.014V74.069a2.462,2.462,0,0,1,.126-1.014c0-.318.126-.5.318-.548a2.281,2.281,0,0,1,.548-.318,1.1,1.1,0,0,1,.51-.126V71.24H425.93V72c.126,0,.192.126.51.126.318.126.5.192.548.318a2.269,2.269,0,0,1,.318.548c0,.318.126.548.126,1.014v18.7a2.462,2.462,0,0,1-.126,1.014c0,.318-.126.5-.318.548a.85.85,0,0,1-.548.318,1.1,1.1,0,0,1-.51.126v.7h7.988Z" transform="translate(-211.294 -64.98)" fill="#2f9a41"/>
    <path id="Path_52" data-name="Path 52" d="M339.835,92.576c.318-1.393.888-3.361,1.645-5.834h7.8l1.1,3.169a23.707,23.707,0,0,1,1.1,3.547,8.224,8.224,0,0,1,.5,2.155h6.212c-.318-.5-.548-1.206-1.014-1.963a30.58,30.58,0,0,1-1.393-3.421l-5.636-15.977a8.657,8.657,0,0,1-.51-1.776c-.126-.5-.126-.888-.192-1.206h-6.969v.762c.126,0,.192.126.5.126.318.126.5.192.548.318a2.275,2.275,0,0,1,.318.548v.5a3.915,3.915,0,0,1-.318,1.585l-3.931,9.633c-.7,1.776-1.393,3.361-1.837,4.5s-1.014,2.281-1.267,3.043c-.378.762-.7,1.458-1.014,1.963a13.828,13.828,0,0,0-.7,1.267h4.436a25.213,25.213,0,0,1,.62-2.944Zm5.581-17.369,3.191,9.825H341.9Z" transform="translate(-170.12 -64.993)" fill="#2f9a41"/>
    <path id="Path_53" data-name="Path 53" d="M387.833,94.681h-.2c-.126,0-.192-.126-.51-.126-.318-.126-.5-.192-.548-.318a2.3,2.3,0,0,1-.318-.548c0-.318-.126-.548-.126-1.014V83.354h9.447v9.255a2.462,2.462,0,0,1-.126,1.014c0,.318-.126.5-.318.548a.855.855,0,0,1-.548.318,1.1,1.1,0,0,1-.5.126v.762h7.988v-.762c-.126,0-.192-.126-.5-.126-.318-.126-.51-.192-.548-.318a2.238,2.238,0,0,1-.318-.548c0-.318-.126-.548-.126-1.014V73.814A2.463,2.463,0,0,1,400.7,72.8c0-.318.126-.5.318-.548a2.293,2.293,0,0,1,.548-.318,1.1,1.1,0,0,1,.5-.126V71.16h-7.857v.762c.126,0,.192.126.5.126.318.126.51.192.548.318a2.287,2.287,0,0,1,.318.548c0,.318.126.548.126,1.014v7.818H386.38V73.89a2.483,2.483,0,0,1,.126-1.014c0-.318.126-.5.318-.548a2.264,2.264,0,0,1,.548-.318.954.954,0,0,1,.5-.126V71.16H379.91v.762c.126,0,.192.126.5.126.318.126.5.192.548.318a2.3,2.3,0,0,1,.318.548c0,.318.126.548.126,1.014V92.691a2.632,2.632,0,0,1-.126,1.014c0,.318-.126.5-.318.548a.855.855,0,0,1-.548.318,1.1,1.1,0,0,1-.5.126v.762H387.9l-.066-.822Z" transform="translate(-190.506 -64.943)" fill="#2f9a41"/>
    <path id="Path_54" data-name="Path 54" d="M77.886,74.064c-.51-.7-1.014-1.393-1.458-2.094L49.167,87.629,36.008,80.085a9.151,9.151,0,0,0-.548,2.533l13.833,8.01Z" transform="translate(-34.91 -65.309)" fill="#2f9a41"/>
    <path id="Path_55" data-name="Path 55" d="M48.706,97.073,34.572,88.959a6.174,6.174,0,0,0-.126,1.519,23.392,23.392,0,1,0,46.785,0A22.962,22.962,0,0,0,78.7,79.83Z" transform="translate(-34.45 -68.86)" fill="#2f9a41"/>
    <path id="Path_56" data-name="Path 56" d="M75.582,66.926a25.869,25.869,0,0,0-2.094-1.776l-23.263,13.5-11.218-6.4c-.378.7-.762,1.458-1.206,2.281l12.3,7.1Z" transform="translate(-35.968 -62.229)" fill="#2f9a41"/>
    <path id="Path_57" data-name="Path 57" d="M73.352,61.233a22.172,22.172,0,0,0-2.741-1.393L52.37,70.345l-8.175-4.611A22.983,22.983,0,0,0,42.55,67.7l9.759,5.581Z" transform="translate(-38.113 -59.83)" fill="#2f9a41"/>
  </g>
</svg>
