<svg xmlns="http://www.w3.org/2000/svg" width="277.664" height="40.263" viewBox="0 0 277.664 40.263">
  <g id="X5_retail_group" transform="translate(-1.824 -2.754)">
    <path id="Path_32" data-name="Path 32" d="M14.291,2.754H1.824l14.325,20.1L1.824,43.017H14.291l14.33-20.166-14.33-20.1" fill="#f78f1e" fill-rule="evenodd"/>
    <path id="Path_33" data-name="Path 33" d="M30.132,11.761h5.985l4.6,7.5,4.762-7.5H51.13l-7.517,11.2,8.174,12.269H45.642L40.521,27.11l-5.227,8.121H29.507l8.19-12.3-7.565-11.17" fill="#fff"/>
    <path id="Path_34" data-name="Path 34" d="M58.5,15.638,57.58,20.87l.069.064a5.863,5.863,0,0,1,2.04-1.367,6.79,6.79,0,0,1,2.461-.411,6.976,6.976,0,0,1,3.027.624A6.694,6.694,0,0,1,67.4,21.451a7.247,7.247,0,0,1,1.382,2.478,9.406,9.406,0,0,1,.481,3.032,7.858,7.858,0,0,1-.694,3.3A8.426,8.426,0,0,1,66.709,32.9,8.31,8.31,0,0,1,64,34.622a8.438,8.438,0,0,1-3.289.577,11.365,11.365,0,0,1-3.208-.447A8.081,8.081,0,0,1,54.793,33.4,6.863,6.863,0,0,1,52.9,31.11a7.077,7.077,0,0,1-.737-3.171h4.667a3.754,3.754,0,0,0,1.185,2.508,3.656,3.656,0,0,0,2.59.941,3.575,3.575,0,0,0,1.655-.374,3.943,3.943,0,0,0,1.254-.983,4.529,4.529,0,0,0,.785-1.409,4.889,4.889,0,0,0,.283-1.655,5.191,5.191,0,0,0-.268-1.67,3.908,3.908,0,0,0-.784-1.372,3.56,3.56,0,0,0-1.255-.918,3.968,3.968,0,0,0-1.671-.321,4.074,4.074,0,0,0-2.034.438,4.665,4.665,0,0,0-1.484,1.4h-4.2l2.269-12.729H68.013v3.845H58.5" fill="#fff"/>
    <path id="Path_35" data-name="Path 35" d="M84.27,11.761a10.033,10.033,0,0,1,2.744.359,6.481,6.481,0,0,1,2.264,1.1,5.3,5.3,0,0,1,1.543,1.9A6.236,6.236,0,0,1,91.4,17.88a6.553,6.553,0,0,1-1.153,3.875,5.255,5.255,0,0,1-3.417,2.1v.07a5.3,5.3,0,0,1,1.911.6,3.929,3.929,0,0,1,1.239,1.132,4.817,4.817,0,0,1,.688,1.6,11.8,11.8,0,0,1,.283,1.948c.021.4.043.876.064,1.447s.063,1.143.133,1.726a9.342,9.342,0,0,0,.315,1.638,3.114,3.114,0,0,0,.571,1.207H89.554a3.032,3.032,0,0,1-.315-.806,7.184,7.184,0,0,1-.16-.987c-.032-.337-.064-.673-.085-1s-.043-.609-.07-.855c-.043-.827-.107-1.655-.208-2.477a6.819,6.819,0,0,0-.63-2.195,3.821,3.821,0,0,0-1.377-1.559,4.1,4.1,0,0,0-2.477-.529H75.774V35.232H73.521V11.762H84.27M84.1,22.9a5.976,5.976,0,0,0,1.938-.31,4.894,4.894,0,0,0,1.612-.9,4.516,4.516,0,0,0,1.1-1.426,4.377,4.377,0,0,0,.4-1.921,4.617,4.617,0,0,0-1.244-3.417A5.156,5.156,0,0,0,84.1,13.677H75.775V22.9H84.1Z" fill="#fff"/>
    <path id="Path_36" data-name="Path 36" d="M110.981,11.761v1.917H97.02v8.451H110.1v1.923H97.02v9.257h14.126v1.922H94.776V11.761h16.205" fill="#fff"/>
    <path id="Path_37" data-name="Path 37" d="M130.97,11.761v1.917h-8.184V35.231h-2.238V13.678H112.4V11.761H130.97" fill="#fff"/>
    <path id="Path_38" data-name="Path 38" d="M139.245,11.761l9.194,23.47h-2.392l-2.862-7.3H132.506l-2.824,7.3h-2.365l9.429-23.47h2.5m3.188,14.246L137.9,13.978,133.2,26.007Z" fill="#fff"/>
    <rect id="Rectangle_2" data-name="Rectangle 2" width="2.243" height="23.48" transform="translate(150.734 11.751)" fill="#fff"/>
    <path id="Path_39" data-name="Path 39" d="M160.111,11.761V33.309h13.144v1.922H157.867V11.761h2.244" fill="#fff"/>
    <g id="Group_18" data-name="Group 18">
      <path id="Path_40" data-name="Path 40" d="M186.505,36.12a11.4,11.4,0,0,1-4.923-1.008h0a10.2,10.2,0,0,1-3.577-2.727h0a11.693,11.693,0,0,1-2.15-4.014h0a16.008,16.008,0,0,1-.723-4.871h0a15.43,15.43,0,0,1,.776-4.926h0a12.141,12.141,0,0,1,2.248-4.025h0a10.4,10.4,0,0,1,3.578-2.715h0a11.235,11.235,0,0,1,4.792-.987h0a11.835,11.835,0,0,1,3.754.577h0a9.728,9.728,0,0,1,3.043,1.656h0a9.006,9.006,0,0,1,2.15,2.583h0a10.337,10.337,0,0,1,1.153,3.371h0l.075.44h-1.426l-.056-.313a8.737,8.737,0,0,0-1.015-2.843h0a7.753,7.753,0,0,0-1.852-2.171h0a8.135,8.135,0,0,0-2.582-1.4h0a10.115,10.115,0,0,0-3.246-.488h0a9.652,9.652,0,0,0-4.224.88h0a9.247,9.247,0,0,0-3.125,2.4h0a10.515,10.515,0,0,0-1.955,3.567h0a14.08,14.08,0,0,0-.669,4.393h0a14.75,14.75,0,0,0,.646,4.414h0a10.08,10.08,0,0,0,1.9,3.563h0a9.143,9.143,0,0,0,3.136,2.4h0a10.252,10.252,0,0,0,4.383.883h0a9.338,9.338,0,0,0,3.5-.648h0a8.754,8.754,0,0,0,2.856-1.8h0a8.258,8.258,0,0,0,1.9-2.731h0a8.6,8.6,0,0,0,.688-3.449h0v-.84h-9.1V23.888H196.98V35.6h-1.426l.011-4.478a8.854,8.854,0,0,1-2.9,3.258h0a10.69,10.69,0,0,1-6.148,1.742h-.016Z" fill="#fff"/>
    </g>
    <g id="Group_19" data-name="Group 19">
      <path id="Path_41" data-name="Path 41" d="M199.267,35.607h-.376V11.393h10c2.509,0,4.4.482,5.654,1.553h0a6.239,6.239,0,0,1,1.916,4.831h0c0,.075,0,.149,0,.224h0a5.935,5.935,0,0,1-1.354,3.949h0a6.494,6.494,0,0,1-2.674,1.849h0a5.952,5.952,0,0,1,1.174.471h0a3.989,3.989,0,0,1,1.553,1.47h0a5.684,5.684,0,0,1,.71,2.083h0a19.234,19.234,0,0,1,.158,2.583h0c0,.3.021.72.038,1.211h0c.021.488.057.97.1,1.443h0c.049.475.1.9.161,1.291h0a1.757,1.757,0,0,0,.2.661h0l.436.6h-1.7l-.1-.212a4.01,4.01,0,0,1-.313-1.082h0c-.064-.41-.118-.86-.147-1.33h0c-.029-.464-.061-.928-.069-1.406h0c-.011-.479-.02-.9-.02-1.28h0a13.332,13.332,0,0,0-.208-2.516h0a3.719,3.719,0,0,0-.779-1.729h0a3.834,3.834,0,0,0-1.7-1.073h0a10.244,10.244,0,0,0-3.136-.392h-8.464V35.609h-1.052Zm9.456-12.414a8.907,8.907,0,0,0,2.422-.325h0a5.337,5.337,0,0,0,1.985-.979h0a4.911,4.911,0,0,0,1.381-1.7h0a5.4,5.4,0,0,0,.515-2.469h0a4.836,4.836,0,0,0-1.392-3.625h0c-.877-.83-2.391-1.288-4.575-1.286h0l-8.74,0V23.194h8.4Z" fill="#fff"/>
    </g>
    <g id="Group_20" data-name="Group 20">
      <path id="Path_42" data-name="Path 42" d="M223.967,35.111a10.112,10.112,0,0,1-3.511-2.745h0a12.244,12.244,0,0,1-2.138-4.04h0a16.014,16.014,0,0,1-.731-4.839h0a16.023,16.023,0,0,1,.731-4.844h0a12.176,12.176,0,0,1,2.138-4.038h0a10.113,10.113,0,0,1,3.508-2.756h0a10.818,10.818,0,0,1,4.813-1.032h0a10.765,10.765,0,0,1,4.812,1.032h0A10.145,10.145,0,0,1,237.1,14.6h0a12.176,12.176,0,0,1,2.14,4.035h0a16.023,16.023,0,0,1,.723,4.847h0a15.977,15.977,0,0,1-.723,4.839h0a12.193,12.193,0,0,1-2.14,4.04h0a10.13,10.13,0,0,1-3.516,2.745h0a10.9,10.9,0,0,1-4.812,1.011h0a10.943,10.943,0,0,1-4.81-1.011Zm-2.3-3.5a8.791,8.791,0,0,0,3.04,2.323h0a9.528,9.528,0,0,0,4.066.83h0a9.6,9.6,0,0,0,4.078-.827h0a8.872,8.872,0,0,0,3.037-2.323h0a10.818,10.818,0,0,0,1.927-3.549h0a15.1,15.1,0,0,0,.72-4.551h0a15.039,15.039,0,0,0-.72-4.548h0a10.871,10.871,0,0,0-1.927-3.559h0a8.888,8.888,0,0,0-3.037-2.315h0a9.5,9.5,0,0,0-4.078-.835h0a9.439,9.439,0,0,0-4.064.835h0a8.78,8.78,0,0,0-3.042,2.315h0a10.884,10.884,0,0,0-1.934,3.559h0a15.2,15.2,0,0,0-.712,4.539h0a15.292,15.292,0,0,0,.712,4.558h0a10.753,10.753,0,0,0,1.934,3.549Z" fill="#fff"/>
    </g>
    <g id="Group_21" data-name="Group 21">
      <path id="Path_43" data-name="Path 43" d="M259.587,11.382h.378v15.1c0,3.206-.749,5.647-2.311,7.254h0a8.883,8.883,0,0,1-6.668,2.391h-.015c-2.874,0-5.126-.782-6.68-2.391h0c-1.568-1.607-2.311-4.048-2.311-7.254h0v-15.1H243.4v15.1c0,2.774.633,4.814,1.84,6.188h0c1.2,1.357,3.074,2.067,5.726,2.071h0c2.65,0,4.521-.714,5.722-2.071h0c1.2-1.376,1.845-3.415,1.845-6.188h0v-15.1h1.049Z" fill="#fff"/>
    </g>
    <g id="Group_22" data-name="Group 22">
      <path id="Path_44" data-name="Path 44" d="M262.456,35.607h-.379V11.4h9.9a8.2,8.2,0,0,1,5.506,1.707h0a6.384,6.384,0,0,1,2.009,5.08h0a6.885,6.885,0,0,1-.594,2.9h0a6,6,0,0,1-1.653,2.142h0a7.1,7.1,0,0,1-2.478,1.28h0a10.646,10.646,0,0,1-3.12.427H263.5V35.608h-1.048Zm9.509-12.094a7.943,7.943,0,0,0,2.447-.357h0a5.5,5.5,0,0,0,1.928-1.043h0a4.912,4.912,0,0,0,1.262-1.662h0a5.289,5.289,0,0,0,.458-2.273h0a5.147,5.147,0,0,0-1.479-3.995h0a6.607,6.607,0,0,0-4.615-1.371h0l-8.463,0v10.7h8.462Z" fill="#fff"/>
    </g>
  </g>
</svg>
