<svg xmlns="http://www.w3.org/2000/svg" width="212.984" height="30.884" viewBox="0 0 212.984 30.884">
  <g id="X5_retail_group" transform="translate(-1.824 -2.754)">
    <path id="Path_59" data-name="Path 59" d="M11.387,2.754H1.824L12.812,18.17,1.824,33.638h9.563L22.379,18.17,11.387,2.754" fill="#f78f1e" fill-rule="evenodd"/>
    <path id="Path_60" data-name="Path 60" d="M29.986,11.761h4.591l3.53,5.751,3.653-5.751h4.333l-5.766,8.592,6.27,9.411H41.883l-3.928-6.229-4.009,6.229H29.507l6.282-9.435-5.8-8.568" transform="translate(-6.449 -2.098)"/>
    <path id="Path_61" data-name="Path 61" d="M57.024,14.743l-.7,4.013.053.049a4.5,4.5,0,0,1,1.565-1.049,5.208,5.208,0,0,1,1.888-.315,5.351,5.351,0,0,1,2.322.479,5.134,5.134,0,0,1,1.7,1.282,5.559,5.559,0,0,1,1.06,1.9,7.215,7.215,0,0,1,.369,2.326,6.028,6.028,0,0,1-.532,2.527,6.464,6.464,0,0,1-1.425,2.031,6.374,6.374,0,0,1-2.08,1.318,6.472,6.472,0,0,1-2.523.443,8.718,8.718,0,0,1-2.461-.343,6.2,6.2,0,0,1-2.076-1.041,5.264,5.264,0,0,1-1.45-1.753,5.428,5.428,0,0,1-.565-2.432h3.58a2.88,2.88,0,0,0,.909,1.924,2.8,2.8,0,0,0,1.987.722,2.742,2.742,0,0,0,1.269-.287,3.025,3.025,0,0,0,.962-.754,3.474,3.474,0,0,0,.6-1.081,3.75,3.75,0,0,0,.217-1.269,3.982,3.982,0,0,0-.206-1.281,3,3,0,0,0-.6-1.052,2.73,2.73,0,0,0-.963-.7,3.044,3.044,0,0,0-1.282-.246,3.125,3.125,0,0,0-1.56.336,3.578,3.578,0,0,0-1.138,1.073H52.719l1.74-9.764h9.862v2.949h-7.3" transform="translate(-11.727 -2.106)"/>
    <path id="Path_62" data-name="Path 62" d="M81.766,11.761a7.7,7.7,0,0,1,2.1.275,4.971,4.971,0,0,1,1.737.847,4.069,4.069,0,0,1,1.184,1.458,4.783,4.783,0,0,1,.443,2.113,5.027,5.027,0,0,1-.884,2.972,4.031,4.031,0,0,1-2.621,1.614v.054a4.068,4.068,0,0,1,1.466.463,3.014,3.014,0,0,1,.95.868,3.7,3.7,0,0,1,.528,1.229,9.052,9.052,0,0,1,.217,1.494c.016.3.033.672.049,1.11s.048.877.1,1.324a7.166,7.166,0,0,0,.242,1.256,2.389,2.389,0,0,0,.438.926h-1.9a2.326,2.326,0,0,1-.242-.618,5.51,5.51,0,0,1-.123-.757c-.025-.258-.049-.516-.065-.77s-.033-.467-.054-.656c-.033-.634-.082-1.269-.16-1.9a5.231,5.231,0,0,0-.483-1.684,2.931,2.931,0,0,0-1.056-1.2,3.148,3.148,0,0,0-1.9-.406H75.249v7.986H73.521v-18h8.245M81.635,20.3a4.584,4.584,0,0,0,1.487-.238,3.754,3.754,0,0,0,1.236-.693A3.464,3.464,0,0,0,85.2,18.28a3.357,3.357,0,0,0,.308-1.474,3.541,3.541,0,0,0-.954-2.621,3.955,3.955,0,0,0-2.92-.955H75.25V20.3h6.385Z" transform="translate(-16.701 -2.098)"/>
    <path id="Path_63" data-name="Path 63" d="M107.206,11.761v1.47H96.5v6.482h10.029v1.475H96.5v7.1h10.835v1.474H94.776v-18h12.43" transform="translate(-21.653 -2.098)"/>
    <path id="Path_64" data-name="Path 64" d="M126.643,11.761v1.47h-6.278V29.764h-1.717V13.231H112.4v-1.47h14.247" transform="translate(-25.757 -2.098)"/>
    <path id="Path_65" data-name="Path 65" d="M136.466,11.761l7.052,18h-1.835l-2.2-5.6H131.3l-2.166,5.6h-1.814l7.233-18h1.917m2.445,10.927-3.48-9.227-3.6,9.227Z" transform="translate(-29.233 -2.098)"/>
    <rect id="Rectangle_5" data-name="Rectangle 5" width="1.721" height="18.01" transform="translate(116.046 9.655)"/>
    <path id="Path_66" data-name="Path 66" d="M159.588,11.761V28.29H169.67v1.474h-11.8v-18h1.721" transform="translate(-36.349 -2.098)"/>
    <g id="Group_23" data-name="Group 23" transform="translate(134.761 8.962)">
      <path id="Path_67" data-name="Path 67" d="M183.856,30.233a8.741,8.741,0,0,1-3.776-.773h0a7.825,7.825,0,0,1-2.744-2.092h0a8.969,8.969,0,0,1-1.649-3.079h0a12.279,12.279,0,0,1-.555-3.736h0a11.835,11.835,0,0,1,.6-3.779h0a9.313,9.313,0,0,1,1.724-3.087h0A7.978,7.978,0,0,1,180.2,11.6h0a8.618,8.618,0,0,1,3.676-.757h0a9.078,9.078,0,0,1,2.88.443h0a7.462,7.462,0,0,1,2.334,1.27h0a6.908,6.908,0,0,1,1.649,1.981h0a7.93,7.93,0,0,1,.884,2.586h0l.058.338h-1.094l-.043-.24a6.7,6.7,0,0,0-.779-2.181h0a5.947,5.947,0,0,0-1.421-1.665h0a6.24,6.24,0,0,0-1.981-1.072h0a7.759,7.759,0,0,0-2.49-.374h0a7.4,7.4,0,0,0-3.24.675h0a7.093,7.093,0,0,0-2.4,1.841h0a8.065,8.065,0,0,0-1.5,2.736h0a10.8,10.8,0,0,0-.513,3.37h0a11.314,11.314,0,0,0,.5,3.386h0a7.732,7.732,0,0,0,1.454,2.733h0a7.013,7.013,0,0,0,2.405,1.839h0a7.864,7.864,0,0,0,3.362.677h0a7.163,7.163,0,0,0,2.685-.5h0a6.715,6.715,0,0,0,2.191-1.378h0a6.335,6.335,0,0,0,1.457-2.095h0a6.594,6.594,0,0,0,.528-2.646h0v-.644H183.82V20.85h8.07v8.982H190.8l.008-3.435a6.791,6.791,0,0,1-2.221,2.5h0a8.2,8.2,0,0,1-4.716,1.336h-.012Z" transform="translate(-175.132 -10.847)"/>
    </g>
    <g id="Group_24" data-name="Group 24" transform="translate(152.985 9.381)">
      <path id="Path_68" data-name="Path 68" d="M199.179,29.966h-.288V11.393h7.671a6.562,6.562,0,0,1,4.337,1.191h0a4.786,4.786,0,0,1,1.47,3.706h0c0,.058,0,.114,0,.172h0a4.552,4.552,0,0,1-1.039,3.029h0a4.981,4.981,0,0,1-2.051,1.418h0a4.566,4.566,0,0,1,.9.361h0a3.06,3.06,0,0,1,1.191,1.128h0a4.36,4.36,0,0,1,.545,1.6h0a14.754,14.754,0,0,1,.121,1.981h0c0,.233.016.552.029.929h0c.016.374.044.744.074,1.107h0c.038.364.076.691.123.99h0a1.348,1.348,0,0,0,.151.507h0l.334.459h-1.3l-.077-.163a3.076,3.076,0,0,1-.24-.83h0c-.049-.314-.09-.66-.113-1.02h0c-.022-.356-.047-.712-.053-1.078h0c-.008-.367-.015-.689-.015-.982h0a10.226,10.226,0,0,0-.16-1.93h0a2.853,2.853,0,0,0-.6-1.326h0a2.941,2.941,0,0,0-1.307-.823h0a7.858,7.858,0,0,0-2.405-.3h-6.492v8.452h-.807Zm7.253-9.522a6.832,6.832,0,0,0,1.858-.249h0a4.094,4.094,0,0,0,1.523-.751h0a3.767,3.767,0,0,0,1.059-1.3h0a4.142,4.142,0,0,0,.4-1.894h0a3.71,3.71,0,0,0-1.068-2.781h0a5.043,5.043,0,0,0-3.509-.986h0l-6.7,0v7.965h6.446Z" transform="translate(-198.891 -11.393)"/>
    </g>
    <g id="Group_25" data-name="Group 25" transform="translate(167.326 8.939)">
      <path id="Path_69" data-name="Path 69" d="M222.481,29.452a7.756,7.756,0,0,1-2.693-2.106h0a9.391,9.391,0,0,1-1.64-3.1h0a12.284,12.284,0,0,1-.561-3.712h0a12.29,12.29,0,0,1,.561-3.716h0a9.34,9.34,0,0,1,1.64-3.1h0a7.757,7.757,0,0,1,2.691-2.114h0a8.3,8.3,0,0,1,3.692-.792h0a8.257,8.257,0,0,1,3.691.792h0a7.781,7.781,0,0,1,2.7,2.114h0a9.34,9.34,0,0,1,1.641,3.1h0a12.29,12.29,0,0,1,.555,3.718h0a12.255,12.255,0,0,1-.555,3.712h0a9.352,9.352,0,0,1-1.641,3.1h0a7.77,7.77,0,0,1-2.7,2.106h0a8.363,8.363,0,0,1-3.691.775h0a8.394,8.394,0,0,1-3.69-.775Zm-1.762-2.683a6.743,6.743,0,0,0,2.332,1.782h0a7.308,7.308,0,0,0,3.119.637h0a7.366,7.366,0,0,0,3.128-.634h0a6.806,6.806,0,0,0,2.33-1.782h0a8.3,8.3,0,0,0,1.478-2.722h0a11.582,11.582,0,0,0,.552-3.491h0a11.536,11.536,0,0,0-.552-3.489h0a8.338,8.338,0,0,0-1.478-2.73h0a6.818,6.818,0,0,0-2.33-1.776h0a7.287,7.287,0,0,0-3.128-.64h0a7.24,7.24,0,0,0-3.117.64h0a6.734,6.734,0,0,0-2.333,1.776h0a8.349,8.349,0,0,0-1.483,2.73h0a11.661,11.661,0,0,0-.546,3.482h0a11.73,11.73,0,0,0,.546,3.5h0a8.248,8.248,0,0,0,1.484,2.722Z" transform="translate(-217.587 -10.817)"/>
    </g>
    <g id="Group_26" data-name="Group 26" transform="translate(186.037 9.372)">
      <path id="Path_70" data-name="Path 70" d="M255.486,11.382h.29V22.961c0,2.459-.575,4.332-1.773,5.564h0a6.814,6.814,0,0,1-5.115,1.834h-.012a6.808,6.808,0,0,1-5.124-1.834h0c-1.2-1.233-1.773-3.105-1.773-5.564h0V11.382h1.093V22.961a7,7,0,0,0,1.411,4.747h0a5.561,5.561,0,0,0,4.392,1.589h0a5.557,5.557,0,0,0,4.389-1.589h0a7,7,0,0,0,1.415-4.747h0V11.382h.8Z" transform="translate(-241.98 -11.382)"/>
    </g>
    <g id="Group_27" data-name="Group 27" transform="translate(201.452 9.388)">
      <path id="Path_71" data-name="Path 71" d="M262.368,29.969h-.291V11.4h7.591a6.291,6.291,0,0,1,4.223,1.309h0a4.9,4.9,0,0,1,1.541,3.9h0a5.281,5.281,0,0,1-.456,2.226h0a4.6,4.6,0,0,1-1.268,1.643h0a5.448,5.448,0,0,1-1.9.982h0a8.166,8.166,0,0,1-2.393.328h-6.243V29.97h-.8Zm7.294-9.277a6.093,6.093,0,0,0,1.877-.274h0a4.218,4.218,0,0,0,1.479-.8h0a3.768,3.768,0,0,0,.968-1.275h0a4.057,4.057,0,0,0,.351-1.744h0a3.948,3.948,0,0,0-1.134-3.064h0a5.068,5.068,0,0,0-3.54-1.052h0l-6.492,0v8.211h6.491Z" transform="translate(-262.077 -11.403)"/>
    </g>
  </g>
</svg>
